<svg width="193" height="22" viewBox="0 0 193 22" fill="none" xmlns="http://www.w3.org/2000/svg">
<path d="M8.57 21.71C8.13 21.71 7.77 21.6 7.49 21.38C7.23 21.16 7.01 20.82 6.83 20.36L0.38 1.97C0.2 1.45 0.23 1.02 0.47 0.68C0.73 0.32 1.15 0.14 1.73 0.14C2.17 0.14 2.51 0.24 2.75 0.439999C3.01 0.639999 3.21 0.959999 3.35 1.4L9.2 18.62H8.09L14.09 1.46C14.27 1.02 14.48 0.689999 14.72 0.469999C14.96 0.249999 15.28 0.14 15.68 0.14C16.08 0.14 16.39 0.249999 16.61 0.469999C16.85 0.689999 17.06 1.03 17.24 1.49L23.12 18.62H22.13L28.04 1.4C28.18 0.979999 28.37 0.669999 28.61 0.469999C28.87 0.249999 29.21 0.14 29.63 0.14C30.15 0.14 30.53 0.32 30.77 0.68C31.03 1.02 31.06 1.45 30.86 1.97L24.38 20.39C24.2 20.83 23.98 21.16 23.72 21.38C23.46 21.6 23.11 21.71 22.67 21.71C22.21 21.71 21.85 21.6 21.59 21.38C21.33 21.16 21.12 20.82 20.96 20.36L15.29 4.13H15.95L10.22 20.39C10.06 20.83 9.85 21.16 9.59 21.38C9.35 21.6 9.01 21.71 8.57 21.71ZM38.4073 21.68C37.9273 21.68 37.5573 21.54 37.2973 21.26C37.0373 20.96 36.9073 20.55 36.9073 20.03V8.33C36.9073 7.81 37.0373 7.41 37.2973 7.13C37.5573 6.85 37.9273 6.71 38.4073 6.71C38.8873 6.71 39.2573 6.85 39.5173 7.13C39.7973 7.41 39.9373 7.81 39.9373 8.33V20.03C39.9373 20.55 39.8073 20.96 39.5473 21.26C39.2873 21.54 38.9073 21.68 38.4073 21.68ZM38.4073 3.59C37.8073 3.59 37.3373 3.44 36.9973 3.14C36.6773 2.84 36.5173 2.42 36.5173 1.88C36.5173 1.32 36.6773 0.899999 36.9973 0.619999C37.3373 0.319999 37.8073 0.169999 38.4073 0.169999C39.0073 0.169999 39.4673 0.319999 39.7873 0.619999C40.1273 0.899999 40.2973 1.32 40.2973 1.88C40.2973 2.42 40.1273 2.84 39.7873 3.14C39.4673 3.44 39.0073 3.59 38.4073 3.59ZM50.8323 21.77C49.9523 21.77 49.0423 21.67 48.1023 21.47C47.1823 21.27 46.3323 20.93 45.5523 20.45C45.2923 20.27 45.1123 20.07 45.0123 19.85C44.9123 19.63 44.8723 19.41 44.8923 19.19C44.9323 18.95 45.0223 18.75 45.1623 18.59C45.3223 18.41 45.5123 18.3 45.7323 18.26C45.9723 18.22 46.2223 18.27 46.4823 18.41C47.2623 18.85 48.0123 19.16 48.7323 19.34C49.4523 19.5 50.1623 19.58 50.8623 19.58C51.9223 19.58 52.7223 19.39 53.2623 19.01C53.8023 18.63 54.0723 18.12 54.0723 17.48C54.0723 16.96 53.8923 16.56 53.5323 16.28C53.1723 15.98 52.6323 15.75 51.9123 15.59L49.0623 15.02C47.8223 14.76 46.8823 14.3 46.2423 13.64C45.6023 12.98 45.2823 12.14 45.2823 11.12C45.2823 10.2 45.5323 9.4 46.0323 8.72C46.5323 8.04 47.2323 7.52 48.1323 7.16C49.0323 6.78 50.0723 6.59 51.2523 6.59C52.1323 6.59 52.9623 6.7 53.7423 6.92C54.5223 7.14 55.2423 7.47 55.9023 7.91C56.1623 8.05 56.3323 8.24 56.4123 8.48C56.4923 8.7 56.5023 8.92 56.4423 9.14C56.4023 9.36 56.3023 9.56 56.1423 9.74C55.9823 9.9 55.7823 10 55.5423 10.04C55.3223 10.06 55.0723 10 54.7923 9.86C54.1923 9.48 53.5923 9.21 52.9923 9.05C52.4123 8.89 51.8323 8.81 51.2523 8.81C50.1923 8.81 49.3923 9.01 48.8523 9.41C48.3323 9.79 48.0723 10.31 48.0723 10.97C48.0723 11.47 48.2323 11.88 48.5523 12.2C48.8723 12.52 49.3723 12.75 50.0523 12.89L52.9023 13.46C54.2023 13.72 55.1823 14.16 55.8423 14.78C56.5223 15.4 56.8623 16.24 56.8623 17.3C56.8623 18.68 56.3123 19.77 55.2123 20.57C54.1123 21.37 52.6523 21.77 50.8323 21.77ZM63.2335 21.71C62.7535 21.71 62.3835 21.58 62.1235 21.32C61.8635 21.04 61.7335 20.66 61.7335 20.18V1.67C61.7335 1.17 61.8635 0.789998 62.1235 0.529998C62.3835 0.269999 62.7535 0.14 63.2335 0.14C63.7135 0.14 64.0835 0.269999 64.3435 0.529998C64.6235 0.789998 64.7635 1.17 64.7635 1.67V9.98H64.3435C64.7835 8.86 65.4735 8.02 66.4135 7.46C67.3535 6.88 68.4335 6.59 69.6535 6.59C70.8135 6.59 71.7735 6.81 72.5335 7.25C73.3135 7.67 73.8935 8.32 74.2735 9.2C74.6535 10.06 74.8435 11.15 74.8435 12.47V20.18C74.8435 20.66 74.7135 21.04 74.4535 21.32C74.1935 21.58 73.8235 21.71 73.3435 21.71C72.8435 21.71 72.4635 21.58 72.2035 21.32C71.9435 21.04 71.8135 20.66 71.8135 20.18V12.65C71.8135 11.39 71.5635 10.47 71.0635 9.89C70.5835 9.31 69.8235 9.02 68.7835 9.02C67.5635 9.02 66.5835 9.4 65.8435 10.16C65.1235 10.92 64.7635 11.94 64.7635 13.22V20.18C64.7635 21.2 64.2535 21.71 63.2335 21.71ZM90.3287 21.77C88.1887 21.77 86.3587 21.33 84.8387 20.45C83.3187 19.57 82.1487 18.32 81.3287 16.7C80.5287 15.06 80.1287 13.13 80.1287 10.91C80.1287 9.25 80.3587 7.76 80.8187 6.44C81.2787 5.1 81.9387 3.96 82.7987 3.02C83.6787 2.06 84.7487 1.33 86.0087 0.83C87.2887 0.329999 88.7287 0.0799986 90.3287 0.0799986C91.5087 0.0799986 92.6387 0.239999 93.7187 0.56C94.8187 0.879999 95.7687 1.34 96.5687 1.94C96.9087 2.16 97.1287 2.43 97.2287 2.75C97.3487 3.05 97.3687 3.34 97.2887 3.62C97.2287 3.9 97.0987 4.14 96.8987 4.34C96.6987 4.52 96.4387 4.62 96.1187 4.64C95.8187 4.66 95.4887 4.55 95.1287 4.31C94.4687 3.81 93.7387 3.44 92.9387 3.2C92.1387 2.96 91.2987 2.84 90.4187 2.84C88.8987 2.84 87.6187 3.16 86.5787 3.8C85.5387 4.42 84.7487 5.33 84.2087 6.53C83.6687 7.73 83.3987 9.19 83.3987 10.91C83.3987 12.63 83.6687 14.1 84.2087 15.32C84.7487 16.52 85.5387 17.44 86.5787 18.08C87.6187 18.7 88.8987 19.01 90.4187 19.01C91.2987 19.01 92.1387 18.89 92.9387 18.65C93.7587 18.39 94.5287 18.01 95.2487 17.51C95.6087 17.29 95.9287 17.19 96.2087 17.21C96.5087 17.23 96.7587 17.33 96.9587 17.51C97.1587 17.69 97.2887 17.92 97.3487 18.2C97.4287 18.46 97.4187 18.74 97.3187 19.04C97.2387 19.32 97.0487 19.56 96.7487 19.76C95.9287 20.42 94.9587 20.92 93.8387 21.26C92.7187 21.6 91.5487 21.77 90.3287 21.77ZM106.474 21.77C105.454 21.77 104.534 21.57 103.714 21.17C102.914 20.77 102.284 20.23 101.824 19.55C101.364 18.87 101.134 18.1 101.134 17.24C101.134 16.16 101.404 15.31 101.944 14.69C102.504 14.05 103.414 13.6 104.674 13.34C105.954 13.06 107.674 12.92 109.834 12.92H111.244V14.78H109.864C108.424 14.78 107.284 14.85 106.444 14.99C105.604 15.13 105.004 15.37 104.644 15.71C104.304 16.03 104.134 16.48 104.134 17.06C104.134 17.82 104.394 18.44 104.914 18.92C105.434 19.38 106.154 19.61 107.074 19.61C107.814 19.61 108.464 19.44 109.024 19.1C109.584 18.74 110.024 18.26 110.344 17.66C110.684 17.06 110.854 16.37 110.854 15.59V12.14C110.854 11 110.614 10.18 110.134 9.68C109.654 9.18 108.864 8.93 107.764 8.93C107.124 8.93 106.454 9.01 105.754 9.17C105.074 9.33 104.364 9.6 103.624 9.98C103.284 10.14 102.994 10.19 102.754 10.13C102.514 10.07 102.324 9.94 102.184 9.74C102.044 9.52 101.964 9.29 101.944 9.05C101.944 8.79 102.004 8.54 102.124 8.3C102.264 8.06 102.494 7.88 102.814 7.76C103.694 7.34 104.564 7.04 105.424 6.86C106.284 6.68 107.094 6.59 107.854 6.59C109.194 6.59 110.294 6.8 111.154 7.22C112.034 7.64 112.684 8.28 113.104 9.14C113.524 10 113.734 11.11 113.734 12.47V20.18C113.734 20.66 113.614 21.04 113.374 21.32C113.134 21.58 112.784 21.71 112.324 21.71C111.884 21.71 111.534 21.58 111.274 21.32C111.014 21.04 110.884 20.66 110.884 20.18V18.23H111.154C110.994 18.97 110.694 19.61 110.254 20.15C109.834 20.67 109.304 21.07 108.664 21.35C108.024 21.63 107.294 21.77 106.474 21.77ZM125.647 21.77C124.447 21.77 123.437 21.56 122.617 21.14C121.797 20.72 121.187 20.1 120.787 19.28C120.387 18.46 120.187 17.46 120.187 16.28V9.2H118.387C117.987 9.2 117.677 9.1 117.457 8.9C117.237 8.68 117.127 8.39 117.127 8.03C117.127 7.65 117.237 7.36 117.457 7.16C117.677 6.96 117.987 6.86 118.387 6.86H120.187V3.77C120.187 3.27 120.317 2.89 120.577 2.63C120.857 2.37 121.237 2.24 121.717 2.24C122.197 2.24 122.567 2.37 122.827 2.63C123.087 2.89 123.217 3.27 123.217 3.77V6.86H126.727C127.127 6.86 127.437 6.96 127.657 7.16C127.877 7.36 127.987 7.65 127.987 8.03C127.987 8.39 127.877 8.68 127.657 8.9C127.437 9.1 127.127 9.2 126.727 9.2H123.217V16.04C123.217 17.1 123.437 17.9 123.877 18.44C124.337 18.98 125.077 19.25 126.097 19.25C126.457 19.25 126.767 19.22 127.027 19.16C127.307 19.08 127.537 19.03 127.717 19.01C127.937 19.01 128.117 19.09 128.257 19.25C128.397 19.39 128.467 19.67 128.467 20.09C128.467 20.39 128.407 20.67 128.287 20.93C128.187 21.19 127.997 21.36 127.717 21.44C127.477 21.52 127.147 21.59 126.727 21.65C126.327 21.73 125.967 21.77 125.647 21.77ZM138.168 21.77C136.668 21.77 135.368 21.46 134.268 20.84C133.188 20.2 132.348 19.31 131.748 18.17C131.148 17.01 130.848 15.65 130.848 14.09C130.848 12.93 131.018 11.89 131.358 10.97C131.698 10.03 132.178 9.24 132.798 8.6C133.438 7.96 134.208 7.47 135.108 7.13C136.028 6.77 137.048 6.59 138.168 6.59C138.868 6.59 139.598 6.7 140.358 6.92C141.138 7.12 141.858 7.46 142.518 7.94C142.778 8.1 142.938 8.3 142.998 8.54C143.078 8.76 143.088 8.99 143.028 9.23C142.988 9.47 142.878 9.68 142.698 9.86C142.538 10.02 142.338 10.12 142.098 10.16C141.858 10.18 141.598 10.11 141.318 9.95C140.838 9.61 140.348 9.37 139.848 9.23C139.348 9.07 138.868 8.99 138.408 8.99C137.688 8.99 137.048 9.11 136.488 9.35C135.948 9.57 135.488 9.9 135.108 10.34C134.728 10.76 134.438 11.29 134.238 11.93C134.058 12.57 133.968 13.3 133.968 14.12C133.968 15.76 134.348 17.05 135.108 17.99C135.888 18.91 136.988 19.37 138.408 19.37C138.868 19.37 139.348 19.3 139.848 19.16C140.348 19.02 140.838 18.78 141.318 18.44C141.598 18.28 141.858 18.22 142.098 18.26C142.338 18.3 142.528 18.41 142.668 18.59C142.828 18.75 142.928 18.95 142.968 19.19C143.028 19.41 143.018 19.64 142.938 19.88C142.858 20.12 142.688 20.32 142.428 20.48C141.788 20.94 141.088 21.27 140.328 21.47C139.588 21.67 138.868 21.77 138.168 21.77ZM148.722 21.71C148.242 21.71 147.872 21.58 147.612 21.32C147.352 21.04 147.222 20.66 147.222 20.18V1.67C147.222 1.17 147.352 0.789998 147.612 0.529998C147.872 0.269999 148.242 0.14 148.722 0.14C149.202 0.14 149.572 0.269999 149.832 0.529998C150.112 0.789998 150.252 1.17 150.252 1.67V9.98H149.832C150.272 8.86 150.962 8.02 151.902 7.46C152.842 6.88 153.922 6.59 155.142 6.59C156.302 6.59 157.262 6.81 158.022 7.25C158.802 7.67 159.382 8.32 159.762 9.2C160.142 10.06 160.332 11.15 160.332 12.47V20.18C160.332 20.66 160.202 21.04 159.942 21.32C159.682 21.58 159.312 21.71 158.832 21.71C158.332 21.71 157.952 21.58 157.692 21.32C157.432 21.04 157.302 20.66 157.302 20.18V12.65C157.302 11.39 157.052 10.47 156.552 9.89C156.072 9.31 155.312 9.02 154.272 9.02C153.052 9.02 152.072 9.4 151.332 10.16C150.612 10.92 150.252 11.94 150.252 13.22V20.18C150.252 21.2 149.742 21.71 148.722 21.71ZM172.877 21.77C171.277 21.77 169.897 21.47 168.737 20.87C167.597 20.25 166.707 19.38 166.067 18.26C165.447 17.12 165.137 15.77 165.137 14.21C165.137 12.69 165.447 11.36 166.067 10.22C166.687 9.08 167.537 8.19 168.617 7.55C169.697 6.91 170.927 6.59 172.307 6.59C173.327 6.59 174.237 6.76 175.037 7.1C175.837 7.42 176.517 7.9 177.077 8.54C177.657 9.16 178.087 9.92 178.367 10.82C178.667 11.72 178.817 12.73 178.817 13.85C178.817 14.19 178.717 14.45 178.517 14.63C178.317 14.79 178.017 14.87 177.617 14.87H167.537V13.01H176.777L176.267 13.43C176.267 12.43 176.117 11.58 175.817 10.88C175.537 10.18 175.107 9.65 174.527 9.29C173.967 8.91 173.267 8.72 172.427 8.72C171.487 8.72 170.687 8.94 170.027 9.38C169.387 9.82 168.897 10.43 168.557 11.21C168.217 11.99 168.047 12.9 168.047 13.94V14.12C168.047 15.88 168.457 17.21 169.277 18.11C170.117 18.99 171.327 19.43 172.907 19.43C173.507 19.43 174.137 19.35 174.797 19.19C175.477 19.03 176.117 18.76 176.717 18.38C177.057 18.18 177.357 18.09 177.617 18.11C177.897 18.13 178.117 18.22 178.277 18.38C178.457 18.54 178.567 18.74 178.607 18.98C178.647 19.22 178.607 19.47 178.487 19.73C178.367 19.97 178.157 20.19 177.857 20.39C177.177 20.85 176.387 21.2 175.487 21.44C174.587 21.66 173.717 21.77 172.877 21.77ZM185.15 21.71C184.65 21.71 184.27 21.58 184.01 21.32C183.75 21.04 183.62 20.66 183.62 20.18V8.18C183.62 7.68 183.75 7.3 184.01 7.04C184.27 6.78 184.63 6.65 185.09 6.65C185.57 6.65 185.93 6.78 186.17 7.04C186.43 7.3 186.56 7.68 186.56 8.18V10.37H186.26C186.58 9.17 187.17 8.26 188.03 7.64C188.89 7.02 189.99 6.66 191.33 6.56C191.69 6.54 191.97 6.63 192.17 6.83C192.39 7.03 192.51 7.34 192.53 7.76C192.57 8.18 192.48 8.52 192.26 8.78C192.04 9.02 191.7 9.16 191.24 9.2L190.67 9.26C189.37 9.38 188.38 9.79 187.7 10.49C187.02 11.19 186.68 12.15 186.68 13.37V20.18C186.68 20.66 186.55 21.04 186.29 21.32C186.05 21.58 185.67 21.71 185.15 21.71Z" fill="#8E50D2"/>
</svg>
