<svg width="48" height="30" viewBox="0 0 48 30" fill="none" xmlns="http://www.w3.org/2000/svg">
<g clip-path="url(#clip0_719_552)">
<path d="M9.00586 24.54C8.56586 24.54 8.22586 24.42 7.98586 24.18C7.74586 23.92 7.62586 23.57 7.62586 23.13V18.21H2.79586C2.37586 18.21 2.04586 18.1 1.80586 17.88C1.56586 17.64 1.44586 17.31 1.44586 16.89C1.44586 16.47 1.56586 16.15 1.80586 15.93C2.04586 15.69 2.37586 15.57 2.79586 15.57H7.62586V10.8C7.62586 10.36 7.74586 10.02 7.98586 9.78C8.22586 9.54 8.57586 9.42 9.03586 9.42C9.47586 9.42 9.80586 9.54 10.0259 9.78C10.2659 10.02 10.3859 10.36 10.3859 10.8V15.57H15.2159C15.6559 15.57 15.9859 15.69 16.2059 15.93C16.4459 16.15 16.5659 16.47 16.5659 16.89C16.5659 17.31 16.4459 17.64 16.2059 17.88C15.9859 18.1 15.6559 18.21 15.2159 18.21H10.3859V23.13C10.3859 23.57 10.2659 23.92 10.0259 24.18C9.80586 24.42 9.46586 24.54 9.00586 24.54Z" fill="white"/>
<rect x="27.375" y="1.875" width="11.25" height="11.25" rx="5.625" stroke="white" stroke-width="2"/>
<path d="M45.921 26.1383C46.1458 27.2198 45.2322 28.125 44.1276 28.125C41.8067 28.125 37.6907 28.125 33 28.125C28.3093 28.125 24.1933 28.125 21.8724 28.125C20.7678 28.125 19.8542 27.2198 20.079 26.1383C21.1736 20.8727 26.5421 16.875 33 16.875C39.4579 16.875 44.8264 20.8727 45.921 26.1383Z" stroke="white" stroke-width="2"/>
</g>
<defs>
<clipPath id="clip0_719_552">
<rect width="48" height="30" fill="white"/>
</clipPath>
</defs>
</svg>
