<svg width="22" height="23" viewBox="0 0 22 23" fill="none" xmlns="http://www.w3.org/2000/svg">
<path fill-rule="evenodd" clip-rule="evenodd" d="M21.8001 1.5C21.8001 0.948027 21.3529 0.500505 20.8011 0.5H20.7975H13.0218C12.4695 0.5 12.0218 0.947715 12.0218 1.5C12.0218 2.05228 12.4695 2.5 13.0218 2.5H18.4359L9.5251 11.6858C9.14056 12.0822 9.15018 12.7153 9.54659 13.0999C9.943 13.4844 10.5761 13.4748 10.9606 13.0784L19.8001 3.9661V9.5184C19.8001 10.0707 20.2478 10.5184 20.8001 10.5184C21.3524 10.5184 21.8001 10.0707 21.8001 9.5184V1.5ZM2 6.27034C2 5.16577 2.89543 4.27034 4 4.27034H7.11156C7.66384 4.27034 8.11156 3.82262 8.11156 3.27034C8.11156 2.71805 7.66384 2.27034 7.11156 2.27034H4C1.79086 2.27034 0 4.0612 0 6.27034V18.0254C0 20.2345 1.79086 22.0254 4 22.0254H15.2235C17.4326 22.0254 19.2235 20.2345 19.2235 18.0254V14.7252C19.2235 14.1729 18.7758 13.7252 18.2235 13.7252C17.6712 13.7252 17.2235 14.1729 17.2235 14.7252V18.0254C17.2235 19.1299 16.328 20.0254 15.2235 20.0254H4C2.89543 20.0254 2 19.1299 2 18.0254V6.27034Z" fill="#8E50D2"/>
</svg>
