<svg width="52" height="52" viewBox="0 0 52 52" fill="none" xmlns="http://www.w3.org/2000/svg">
<g clip-path="url(#clip0_666_783)">
<g clip-path="url(#clip1_666_783)">
<path d="M55.424 46.9195L55.1373 46.546C54.1112 45.2103 51.2113 43.8 37.5737 38.2988L35.2705 37.4942L34.5795 37.1494L34.4931 37.0965C34.4459 37.0667 34.3941 36.7046 34.3492 35.5402L34.9538 34.7437C35.89 33.5103 36.1918 32.4598 36.5373 27.6092L36.7964 27.5471C39.4889 26.9057 40.3388 22.5241 37.3434 20.8276L37.576 19.7069C37.7039 19.0908 37.8824 17.5517 37.9722 16.2873C38.1173 14.254 38.1703 13.9172 38.4305 13.3747C39.5476 11.0448 37.477 7.71034 34.7361 7.42528C34.0555 7.35402 34.044 7.34597 33.3645 6.54827C30.7089 3.42643 22.2121 3.32988 17.4501 6.36781C14.487 8.25747 12.7549 11.577 13.6451 13.6575C13.8904 14.2299 13.9457 14.5805 14.0056 15.9425C14.0447 16.8276 14.1818 18.3149 14.5411 20.9425L14.1668 21.0862C11.9994 21.9184 12.2494 26.2011 15.3472 27.6092L15.5062 29.3621C15.7803 32.3793 15.9737 33.1184 17.5353 35.4253L17.5641 36.1598C17.5803 36.5632 17.5538 36.9517 17.4202 37.1494L16.7292 37.3793L14.0804 38.4138L7.19945 41.3161C-2.07579 45.2276 -1.70036 45.0425 -3.30919 47.0345L-3.48193 -3.42529H55.424V46.9195Z" fill="#F2CC72"/>
<path d="M-3.30888 47.0345C-1.70005 45.0425 -2.07548 45.2276 7.19976 41.3161L14.0808 38.4138L14.1096 39.8609C14.2616 47.4908 21.8669 52.685 29.5598 50.4115C34.703 48.8919 37.6823 45.077 37.574 38.2988C51.2117 43.8 54.1115 45.2103 55.1376 46.546L55.4243 46.9195C55.4243 53.4391 55.3806 55.0345 55.3069 55.185C55.1882 55.4253 55.1882 55.4253 25.8539 55.4253H-3.48047L-3.30888 47.0345Z" fill="#A384A3"/>
<path d="M17.5353 35.4253C15.9737 33.1184 15.7802 32.3793 15.5061 29.3621L15.3472 27.6092L15.232 24.3908L15.1169 23.0115L15.0881 22.5C15.072 22.2196 14.943 21.754 14.5411 20.9425C14.1818 18.315 14.0447 16.8276 14.0056 15.9425C13.9457 14.5805 13.8904 14.2299 13.6451 13.6575C12.7549 11.577 14.4869 8.25748 17.4501 6.36782C22.2121 3.32989 30.7088 3.42644 33.3645 6.54828C34.0439 7.34599 34.0555 7.35403 34.7361 7.4253C37.477 7.71035 39.5476 11.0448 38.4305 13.3747C38.1702 13.9173 38.1173 14.254 37.9722 16.2874C37.8823 17.5517 37.7038 19.0908 37.576 19.7069L37.3434 20.8276L37.1073 21.6609C36.9772 22.1196 36.8735 22.7655 36.8827 23.7012L36.7676 24.9655L36.5372 27.6092C36.1917 32.4598 35.89 33.5104 34.9537 34.7437L34.3491 35.5402L33.8021 36.077C30.6777 39.1391 29.7898 39.6954 27.5223 40.0092C23.7507 40.5299 21.2493 39.5414 17.5353 35.4253ZM21.7975 32.2586C21.7986 34.1207 22.1534 35.0184 23.0274 35.3816C23.328 35.5069 23.4996 35.5127 23.8405 35.4092C24.0777 35.3368 24.4129 35.1805 24.5844 35.0598C24.7549 34.9402 25.0601 34.5081 25.2616 34.0989C25.7902 33.0276 26.1829 33.0299 26.7069 34.1058C27.5649 35.8701 29.5388 35.8805 29.9787 34.123C30.0455 33.8598 30.0835 33.154 30.0305 31.4701L28.3606 31.1563C26.2463 30.7598 25.9422 30.7586 23.6677 31.1368C21.7963 31.4471 21.7963 31.4471 21.7975 32.2586ZM25.3664 29.4483L25.4274 29.592C25.8605 30.6161 25.9883 30.6701 26.7484 29.3333L28.7925 29.8793C30.8367 30.4253 30.8367 30.4253 31.067 31.0954C31.6912 32.9115 33.6201 32.1805 34.796 29.6816C36.2827 26.5184 36.5522 22.5908 35.647 17.2644C35.0908 13.9885 35.0908 13.9885 34.1015 13.254C32.6378 12.1667 32.0355 12.0897 30.2033 12.7563C27.6731 13.6759 25.8651 13.6966 22.6059 12.8471C19.7142 12.092 18.9299 12.1805 17.381 13.4379C16.8248 13.8897 16.8248 13.8897 16.386 17.0425C15.6858 22.0667 15.695 24.3322 16.4274 27.5517C17.3384 31.5598 19.8662 33.6035 20.8336 31.115C21.1192 30.3816 21.1192 30.3816 23.024 29.846C24.072 29.5506 25.0278 29.3402 25.3664 29.4483ZM23.1622 12.3897C23.2094 12.3598 23.3361 12.3839 23.4443 12.4437C23.5514 12.5035 23.7104 12.5517 23.7979 12.5517C23.8854 12.5517 24.0178 12.4782 24.0927 12.3874C24.2643 12.1805 23.8785 11.7471 23.5238 11.7471C23.1691 11.7471 23.1265 11.7345 23.0436 11.6012C22.9641 11.4724 21.7296 11.4736 21.5211 11.6023C21.4566 11.6414 21.6086 11.7598 21.8585 11.8644C22.143 11.9828 22.2501 12.0747 22.1441 12.1104C22.0509 12.1414 22.2225 12.2287 22.5253 12.3046C22.8271 12.3805 23.1138 12.4184 23.1622 12.3897ZM20.4374 10.9552C19.9388 10.6885 19.363 10.8759 19.7234 11.1874C19.7868 11.2425 19.9549 11.2862 20.0977 11.2851C20.2405 11.2851 20.4282 11.2379 20.5169 11.1828C20.6447 11.1023 20.6286 11.0575 20.4374 10.9552Z" fill="#683A26"/>
<path d="M26.7487 29.3333L26.8028 29.2471C26.9813 28.962 25.6454 29.0345 25.3667 29.4483C25.0281 29.3402 24.0723 29.5506 23.0243 29.846C21.1195 30.3816 21.1195 30.3816 20.8339 31.1149C19.8665 33.6034 17.3387 31.5597 16.4278 27.5517C15.6953 24.3322 15.6861 22.0666 16.3863 17.0425C16.8251 13.8896 16.8251 13.8896 17.3813 13.4379C18.9303 12.1804 19.7145 12.0919 22.6063 12.8471C25.8654 13.6965 27.6734 13.6758 30.2036 12.7563C32.0358 12.0896 32.6381 12.1666 34.1019 13.254C35.0911 13.9885 35.0911 13.9885 35.6473 17.2643C36.5525 22.5908 36.283 26.5184 34.7963 29.6816C33.6205 32.1804 31.6915 32.9115 31.0673 31.0954C30.837 30.4253 30.837 30.4253 28.7928 29.8793L26.7487 29.3333ZM23.7095 28.3057C23.6243 28.3908 23.9076 28.7115 24.2439 28.9138C24.4178 29.0184 24.6124 29.1034 24.6757 29.1034C24.7391 29.1034 24.7909 29.0827 24.7909 29.0575C24.7909 28.9712 23.7602 28.2552 23.7095 28.3057ZM27.4109 28.2471C27.0527 28.3563 26.8638 28.4655 26.8638 28.562C26.8638 28.6069 26.8765 28.6414 26.8926 28.6391C26.9088 28.6368 27.0896 28.562 27.2957 28.4724C27.7207 28.2873 27.8036 28.1276 27.4109 28.2471ZM33.1978 22.3218L33.199 22.1207C33.2001 22.0046 33.0043 21.8103 32.2765 21.4023L32.3744 21.2678C32.4481 21.1655 32.5633 21.1724 32.8477 21.2965C33.2082 21.4529 33.2174 21.4506 33.0711 21.2425C32.7038 20.7195 30.6919 20.5057 29.6404 20.877C29.1187 21.0609 28.7583 21.6172 28.9368 22.3218L29.212 22.8103C29.903 24.0368 31.6846 24.0781 33.1978 22.3218ZM23.0635 22.2069L23.0923 22.0287C23.1303 21.7942 22.7422 21.5322 21.6815 21.2873L22.1422 21.1724L22.6316 21.3103C23.0899 21.4402 23.1118 21.4356 22.9679 21.2471C22.5233 20.662 20.4205 20.5322 19.2631 21.2873L19.0328 22.0919L19.2631 22.3218L19.2919 22.4655C19.5821 23.9149 22.5049 24.1 23.0635 22.2069ZM21.4097 18.6701C18.9947 18.7506 17.6508 19.2793 17.6508 20.1483C17.6508 20.3322 17.6692 20.4827 17.6923 20.4827C17.7153 20.4827 18.0136 20.4253 18.3544 20.3563C18.6965 20.2862 20.0197 20.2184 21.2969 20.2057C23.8673 20.1804 23.9848 20.1494 23.9848 19.4873C23.9848 18.7529 23.5034 18.6 21.4097 18.6701ZM30.2992 20.1816C31.5429 20.1345 32.4723 20.154 32.9387 20.2379C33.3349 20.3092 33.8427 20.3678 34.0696 20.3678C34.4496 20.3678 34.4773 20.3448 34.4439 20.0517C34.3356 19.1138 32.4953 18.5563 29.8903 18.6712C28.3518 18.7391 28.0155 18.8873 28.0155 19.5C28.0155 20.2264 28.1422 20.2643 30.2992 20.1816Z" fill="#F2D3B7"/>
<path d="M16.8446 37.6092L17.4204 37.1494C17.554 36.9517 17.5805 36.5632 17.5644 36.1598L17.5356 35.4253C21.2496 39.5414 23.7509 40.5299 27.5225 40.0092C29.7901 39.6954 30.678 39.1391 33.8024 36.077L34.3494 35.5402C34.3943 36.7046 34.4461 37.0667 34.4933 37.0966L34.5797 37.1494L35.0404 37.6092L35.1072 37.8678C35.3432 38.7828 35.2891 40.6724 34.9943 41.7713C32.8315 49.8299 20.5079 50.4908 17.2799 42.7207C16.7087 41.3437 16.4657 39.5104 16.8446 37.6092ZM34.6361 38.4713C34.6672 38.7241 34.6926 39.0471 34.6937 39.1897C34.6949 39.3322 34.7214 39.4483 34.7525 39.4483H34.8676C34.9989 39.4483 34.9091 38.5644 34.7513 38.2989C34.5843 38.0172 34.582 38.0207 34.6361 38.4713ZM17.1981 38.0069C17.1302 38.0483 17.0749 38.2092 17.0749 38.3632C17.0749 38.5172 17.1118 38.6437 17.1555 38.6437C17.2004 38.6437 17.2845 38.5954 17.3432 38.5368C17.4872 38.3931 17.3548 37.9103 17.1981 38.0069Z" fill="#F2D3B7"/>
<path d="M14.0806 38.4138L16.7293 37.3793L16.8445 37.6092C16.4656 39.5103 16.7086 41.3436 17.2798 42.7207C20.5078 50.4908 32.8314 49.8298 34.9942 41.7712C35.289 40.6724 35.3431 38.7827 35.1071 37.8678L35.0403 37.6092L35.2706 37.4942L37.5739 38.2988C37.6821 45.077 34.7028 48.8919 29.5596 50.4115C21.8667 52.685 14.2614 47.4908 14.1094 39.8609L14.0806 38.4138Z" fill="#8E7099"/>
<path d="M21.7979 32.2586C21.7968 31.4471 21.7968 31.4471 23.6682 31.1368C25.9426 30.7586 26.2467 30.7597 28.3611 31.1563L30.0309 31.4701C30.0839 33.154 30.0459 33.8597 29.9791 34.123C29.5392 35.8804 27.5653 35.8701 26.7073 34.1057C26.1833 33.0299 25.7906 33.0276 25.262 34.0988C25.0605 34.508 24.7553 34.9402 24.5849 35.0597C24.4133 35.1804 24.0781 35.3368 23.8409 35.4092C23.5 35.5126 23.3284 35.5069 23.0279 35.3816C22.1538 35.0184 21.7991 34.1207 21.7979 32.2586ZM29.052 31.5172L26.029 31.4885C23.2432 31.462 22.9991 31.4758 22.8332 31.862L22.9231 32.0057C23.4551 32.8609 26.5599 33.2322 28.0582 32.6195C28.8355 32.3011 29.4482 31.7551 29.052 31.5172Z" fill="#F2D3B7"/>
<path d="M36.5376 27.6092L36.7679 24.9656L36.8831 23.7012C36.8739 22.7656 36.9775 22.1196 37.1077 21.661L37.3437 20.8276C40.3391 22.5242 39.4892 26.9058 36.7967 27.5472L36.5376 27.6092ZM37.5073 22.8368C37.7422 22.4782 38.1245 22.5426 38.28 22.9667C38.3353 23.1173 38.4067 23.2414 38.4378 23.2414C38.47 23.2414 38.4954 23.146 38.4954 23.0288C38.4954 22.3115 37.6835 22.0897 37.3483 22.715C37.1353 23.1127 37.262 23.2104 37.5073 22.8368Z" fill="#F2D3B7"/>
<path d="M14.5412 20.9425C14.9431 21.754 15.0721 22.2195 15.0882 22.5L15.117 23.0115L15.2322 24.3908L15.3473 27.6092C12.2495 26.2011 11.9995 21.9184 14.1669 21.0862L14.5412 20.9425ZM14.5216 22.5873C14.0828 22.123 13.5082 22.4437 13.5059 23.1551C13.5047 23.2655 13.5312 23.3563 13.5623 23.3563C13.5934 23.3563 13.6199 23.2793 13.6199 23.1839C13.6199 22.7379 14.0794 22.5069 14.4387 22.7724C14.8314 23.0632 14.8752 22.9643 14.5216 22.5873Z" fill="#F2D3B7"/>
<path d="M30.2988 20.1816C28.1418 20.2644 28.0151 20.2265 28.0151 19.5C28.0151 18.8874 28.3514 18.7391 29.89 18.6713C32.495 18.5564 34.3353 19.1138 34.4435 20.0518C34.4769 20.3449 34.4493 20.3678 34.0693 20.3678C33.8424 20.3678 33.3345 20.3092 32.9384 20.238C32.472 20.1541 31.5426 20.1345 30.2988 20.1816Z" fill="#683A26"/>
<path d="M21.4098 18.6701C23.5035 18.6 23.9849 18.7529 23.9849 19.4874C23.9849 20.1494 23.8674 20.1805 21.2969 20.2058C20.0198 20.2184 18.6966 20.2862 18.3545 20.3563C18.0136 20.4253 17.7154 20.4828 17.6923 20.4828C17.6693 20.4828 17.6509 20.3322 17.6509 20.1483C17.6509 19.2793 18.9948 18.7506 21.4098 18.6701Z" fill="#683A26"/>
<path d="M22.833 31.862L24.5892 31.7184C25.6384 31.6333 26.7981 31.608 27.4695 31.6574C28.1432 31.7069 28.6856 31.6954 29.0518 31.5172C29.448 31.7551 28.8353 32.3011 28.058 32.6195C26.5597 33.2322 23.4549 32.8609 22.9228 32.0057L22.833 31.862Z" fill="#E89989"/>
<path d="M29.8581 21.7472L29.3975 21.6322L30.0585 21.4311C30.4224 21.3207 30.8105 21.2426 31.1249 21.2874L31.9311 21.4023H32.2765C33.0044 21.8104 33.2001 22.0046 33.199 22.1207L33.1978 22.3219L32.7314 22.1207C32.1683 21.8771 31.9311 21.9725 31.9311 22.4403C31.9311 23.215 30.9959 23.6173 30.3395 23.1253C30.0746 22.9265 30.0343 22.8173 30.0539 22.3656C30.0666 22.0748 30.0274 21.8173 29.8581 21.7472ZM30.7783 22.6265C30.4063 22.5518 30.2808 22.6357 30.4374 22.8552C30.4984 22.9414 30.7345 23.0115 30.9614 23.0115C31.3092 23.0115 31.4013 22.9552 31.5568 22.6449C31.7802 22.1966 31.5568 22.0322 31.2735 22.4357C31.1387 22.6288 31.0201 22.6748 30.7783 22.6265ZM30.3291 21.5345C30.2646 21.5564 30.2347 21.6138 30.2646 21.661C30.2946 21.7081 30.3706 21.7472 30.4339 21.7472C30.4973 21.7472 30.5491 21.7127 30.5491 21.6702C30.5491 21.5472 30.457 21.4897 30.3291 21.5345Z" fill="#332823"/>
<path d="M28.9365 22.3218L29.8578 21.7471C30.0271 21.8172 30.0663 22.0747 30.0536 22.3655C30.034 22.8172 30.0743 22.9264 30.3392 23.1252C30.9956 23.6172 31.9308 23.2149 31.9308 22.4402C31.9308 21.9724 32.168 21.877 32.7312 22.1206L33.1976 22.3218C31.6843 24.0781 29.9027 24.0367 29.2118 22.8103L28.9365 22.3218Z" fill="#F4E5D6"/>
<path d="M19.2632 22.3219L19.7538 22.0138C20.3618 21.6322 20.9618 21.6793 20.5991 22.0793C20.3653 22.3368 20.4286 22.9242 20.8755 23.2414L21.054 23.377C21.5273 23.7403 22.5016 22.8736 22.2574 21.977L22.459 21.9483C22.5695 21.9322 22.7515 21.9839 23.0636 22.2069C22.505 24.1 19.5822 23.915 19.292 22.4655L19.2632 22.3219Z" fill="#F4E5D6"/>
<path d="M19.263 22.3218L19.0327 22.092L19.5003 21.7759C19.855 21.5356 20.1751 21.4391 21.6815 21.2874C22.7421 21.5322 23.1302 21.7942 23.0922 22.0287L23.0634 22.2069C22.7513 21.9839 22.5694 21.9322 22.4588 21.9483L22.2573 21.977L22.1364 21.9126C21.9268 21.8011 21.731 21.9115 21.7724 22.1172C21.8024 22.269 21.6987 22.3345 21.3152 22.4046C20.8408 22.4897 20.8189 22.5115 20.8753 23.2414C20.4285 22.9241 20.3652 22.3368 20.5989 22.0793C20.9617 21.6793 20.3617 21.6322 19.7536 22.0138L19.263 22.3218Z" fill="#332823"/>
<path d="M32.2766 21.4023H31.9311L31.672 21.3161C31.5292 21.2689 31.3484 21.2425 31.1249 21.2873C30.8106 21.2425 30.4225 21.3207 30.0585 21.431L29.3975 21.6322L28.9368 22.3218C28.7583 21.6172 29.1188 21.0609 29.6405 20.877C30.6919 20.5057 32.7038 20.7195 33.0712 21.2425C33.2175 21.4505 33.2082 21.4528 32.8478 21.2965C32.5633 21.1724 32.4482 21.1655 32.3745 21.2678L32.2766 21.4023Z" fill="#E5B793"/>
<path d="M23.1622 12.3896C23.1139 12.4183 22.8271 12.3804 22.5254 12.3046C22.2225 12.2287 22.0509 12.1413 22.1442 12.1103C22.2502 12.0747 22.1431 11.9827 21.8586 11.8643C21.6087 11.7597 21.4567 11.6413 21.5212 11.6023C21.7296 11.4735 22.9642 11.4724 23.0436 11.6011C23.1265 11.7344 23.1692 11.7471 23.5239 11.7471C23.8786 11.7471 24.2644 12.1804 24.0928 12.3873C24.0179 12.4781 23.8855 12.5517 23.7979 12.5517C23.7104 12.5517 23.5515 12.5034 23.4444 12.4436C23.3361 12.3839 23.2095 12.3597 23.1622 12.3896Z" fill="#543528"/>
<path d="M20.8755 23.2414C20.819 22.5115 20.8409 22.4897 21.3154 22.4046C21.6989 22.3345 21.8025 22.269 21.7726 22.1173C21.7311 21.9115 21.9269 21.8012 22.1365 21.9127L22.2574 21.9771C22.5016 22.8736 21.5273 23.7403 21.054 23.3771L20.8755 23.2414Z" fill="#543528"/>
<path d="M29.0518 31.5173C28.6856 31.6954 28.1432 31.7069 27.4695 31.6575C26.7981 31.6081 25.6384 31.6334 24.5892 31.7184L22.833 31.8621C22.9988 31.4759 23.243 31.4621 26.0288 31.4885L29.0518 31.5173Z" fill="#683A26"/>
<path d="M25.3667 29.4482C25.6454 29.0344 26.9813 28.962 26.8028 29.2471L26.7487 29.3333C25.9886 30.6701 25.8607 30.616 25.4277 29.5919L25.3667 29.4482Z" fill="#E5B793"/>
<path d="M19.0327 22.092L19.263 21.2874L19.7525 21.1437C20.4009 20.954 21.6308 20.9012 22.1421 21.1724L21.6815 21.2874C20.1751 21.4391 19.855 21.5357 19.5003 21.7759L19.0327 22.092Z" fill="#E5B793"/>
<path d="M22.1423 21.1724C21.6309 20.9011 20.401 20.954 19.7526 21.1436L19.2632 21.2873C20.4206 20.5321 22.5235 20.662 22.968 21.2471C23.1119 21.4356 23.0901 21.4402 22.6317 21.3103L22.1423 21.1724Z" fill="#CCA589"/>
<path d="M30.778 22.6264C31.0198 22.6747 31.1384 22.6287 31.2732 22.4356C31.5565 22.0322 31.7799 22.1965 31.5565 22.6448C31.401 22.9552 31.3089 23.0115 30.9611 23.0115C30.7342 23.0115 30.4981 22.9414 30.4371 22.8552C30.2805 22.6356 30.406 22.5517 30.778 22.6264Z" fill="#543528"/>
<path d="M37.507 22.8367C37.2617 23.2103 37.135 23.1126 37.3481 22.7149C37.6832 22.0896 38.4951 22.3114 38.4951 23.0287C38.4951 23.1459 38.4698 23.2413 38.4375 23.2413C38.4064 23.2413 38.335 23.1172 38.2798 22.9666C38.1243 22.5425 37.742 22.4781 37.507 22.8367Z" fill="#E5B793"/>
<path d="M14.5216 22.5873C14.8752 22.9643 14.8314 23.0632 14.4387 22.7724C14.0794 22.5068 13.6199 22.7379 13.6199 23.1839C13.6199 23.2793 13.5934 23.3563 13.5623 23.3563C13.5312 23.3563 13.5047 23.2655 13.5059 23.1551C13.5082 22.4436 14.0829 22.1229 14.5216 22.5873Z" fill="#E5B793"/>
<path d="M20.4376 10.9552C20.6288 11.0575 20.6449 11.1023 20.5171 11.1828C20.4284 11.2379 20.2407 11.2851 20.0979 11.2851C19.9551 11.2862 19.7869 11.2425 19.7236 11.1874C19.3631 10.8759 19.9389 10.6885 20.4376 10.9552Z" fill="#543528"/>
<path d="M34.636 38.4712C34.5818 38.0206 34.5841 38.0172 34.7511 38.2988C34.9089 38.5643 34.9987 39.4482 34.8674 39.4482H34.7523C34.7212 39.4482 34.6947 39.3321 34.6935 39.1896C34.6924 39.0471 34.6671 38.7241 34.636 38.4712Z" fill="#F2CC72"/>
<path d="M23.7096 28.3058C23.7603 28.2552 24.791 28.9713 24.791 29.0575C24.791 29.0828 24.7392 29.1035 24.6759 29.1035C24.6125 29.1035 24.4179 29.0184 24.244 28.9138C23.9077 28.7115 23.6244 28.3908 23.7096 28.3058Z" fill="#E5B793"/>
<path d="M28.9365 22.3219L29.3972 21.6322L29.8578 21.7471L28.9365 22.3219Z" fill="#543528"/>
<path d="M17.1979 38.0069C17.3546 37.9104 17.487 38.3931 17.343 38.5368C17.2843 38.5954 17.2002 38.6437 17.1553 38.6437C17.1116 38.6437 17.0747 38.5173 17.0747 38.3632C17.0747 38.2092 17.13 38.0483 17.1979 38.0069Z" fill="#F2CC72"/>
<path d="M16.7295 37.3793L17.4205 37.1494L16.8447 37.6092L16.7295 37.3793Z" fill="#683A26"/>
<path d="M34.5796 37.1494L35.2706 37.4942L35.0402 37.6092L34.5796 37.1494Z" fill="#683A26"/>
<path d="M27.4108 28.2471C27.8035 28.1276 27.7206 28.2874 27.2956 28.4724C27.0895 28.5621 26.9087 28.6368 26.8926 28.6391C26.8764 28.6414 26.8638 28.6069 26.8638 28.5621C26.8638 28.4655 27.0526 28.3563 27.4108 28.2471Z" fill="#E5B793"/>
<path d="M31.125 21.2873C31.3484 21.2425 31.5292 21.269 31.672 21.3161L31.9311 21.4023L31.125 21.2873Z" fill="#543528"/>
<path d="M30.3291 21.5344C30.4569 21.4896 30.549 21.5471 30.549 21.6701C30.549 21.7126 30.4972 21.7471 30.4339 21.7471C30.3705 21.7471 30.2945 21.708 30.2646 21.6609C30.2346 21.6137 30.2646 21.5563 30.3291 21.5344Z" fill="#543528"/>
</g>
</g>
<defs>
<clipPath id="clip0_666_783">
<rect width="52" height="52" rx="26" fill="white"/>
</clipPath>
<clipPath id="clip1_666_783">
<rect width="60" height="60" fill="white" transform="translate(-4 -4)"/>
</clipPath>
</defs>
</svg>
