<svg width="60" height="60" viewBox="0 0 60 60" fill="none" xmlns="http://www.w3.org/2000/svg">
<path d="M23.4934 4.25284C25.1563 3.84594 26.8458 3.52985 28.5605 3.44824H29.4819H30.5183H31.2093L31.7851 3.56318C45.569 4.58043 56.4254 15.8931 56.5452 29.7701C56.665 43.6069 46.1644 55.2402 32.3609 56.5517C18.4803 57.8712 5.9736 48.2724 3.57014 34.5977C1.14596 20.8057 9.91794 7.57928 23.4934 4.25284ZM25.4511 52.0689L25.5663 51.954L25.9982 51.7287C27.6289 50.8781 30.3064 49.8241 32.073 49.3379C34.0308 48.7977 34.0308 48.7977 37.1402 48.7885C40.154 48.7804 40.2485 48.7735 40.2082 48.5563C40.1863 48.4333 39.8891 47.5701 39.5483 46.6367C39.2074 45.7034 38.6949 44.1126 37.8888 41.2643L38.0039 40.8046L38.6085 40.8115C38.9794 40.8161 39.5252 40.7069 40.0193 40.5299C40.731 40.2747 40.9463 40.2494 41.8619 40.3069C43.7218 40.423 44.8561 39.7379 45.6438 38.0218C46.0101 37.223 46.093 37.1299 46.9176 36.5816C48.4435 35.5666 48.7705 34.8862 48.7763 32.7126C48.7797 30.977 48.7797 30.977 49.3072 30.1517C50.4139 28.4207 50.5118 26.9954 49.6596 25.0276C49.1943 23.954 49.1932 23.9448 49.1909 22.4632C49.1863 19.7195 48.311 17.2517 46.3728 14.5241C43.1794 10.0299 38.582 7.50342 31.2093 7.01146L30.5471 7.05054C29.9103 7.08732 27.7878 7.31951 24.9905 7.65744C22.2024 7.99422 18.4089 9.77123 16.6193 11.577C13.5225 14.7034 12.235 19.8678 14.1652 23.908L14.8561 25.0574L15.0865 25.6322V26.6666L14.7179 26.7448C14.5118 26.7885 14.149 26.7609 13.8968 26.6827C13.6492 26.6046 13.4212 26.5655 13.3924 26.5954C13.3141 26.6724 13.8174 26.9804 14.6258 27.2413L14.3667 27.7873C14.2239 28.0873 13.5675 28.9276 12.9076 29.6551C11.7064 30.977 11.7064 30.977 11.8619 32.1839L12.121 32.5C12.2638 32.6735 12.6266 32.9069 13.4742 33.2184H13.5893L13.5605 33.3138C13.5444 33.3655 13.6043 33.4977 13.6941 33.6057C13.8197 33.7586 13.8392 34.0126 13.7045 35.6322L13.503 35.739C13.2346 35.8804 13.465 36.2942 13.9705 36.5781C14.3241 36.7758 14.3241 36.7758 14.0719 37.1459C13.7782 37.577 13.7494 37.8735 14.1652 38.0459L14.2803 38.1609L14.7571 39.0517C15.2028 39.885 15.2385 40.0241 15.3191 41.1988C15.4262 42.7666 15.8062 43.3574 17.5049 43.7931L17.5993 43.8609C17.7306 43.9551 18.2028 43.8701 18.0807 43.6781H19.002L19.4914 43.7069C19.7609 43.723 20.4738 43.6195 21.0749 43.477C21.6772 43.3344 22.3129 43.2184 22.4891 43.2184C23.4922 43.2184 24.5333 44.9333 25.2312 47.7402C25.4661 48.6827 25.6895 49.4735 25.7966 49.5402V50.4597L25.4511 50.9195L24.7602 51.2643L23.8676 52.1436C22.602 53.3919 23.673 53.6184 25.4511 52.0689ZM41.7179 49.485C42.4308 49.7241 43.5191 50.1712 44.1364 50.477C44.7536 50.7839 45.2984 51.008 45.3456 50.9747C45.3928 50.9425 45.3283 50.8345 45.2016 50.7345C44.5717 50.2425 40.4224 48.6482 40.4224 48.8988C40.4224 48.9896 40.9406 49.2241 41.7179 49.485Z" fill="#F4CE63"/>
<path d="M14.2803 38.1609L14.8562 38.0459L15.1153 37.985C15.5644 37.8793 16.9291 37.1413 16.9291 37.0046C16.9291 36.9322 16.7345 36.8356 16.4972 36.7885C16.26 36.7413 15.5345 36.462 13.7045 35.6322C13.8393 34.0126 13.8197 33.7586 13.6942 33.6057C13.6043 33.4977 13.5444 33.3655 13.5606 33.3138L13.5894 33.2184L13.6757 33.0747C13.7448 32.9609 13.8876 32.9632 14.3782 33.0885C14.9379 33.231 15.0116 33.2276 15.1844 33.0448C15.364 32.8563 15.3502 32.8482 14.9494 32.908C14.7157 32.9436 14.4427 32.9241 14.1652 32.7586L13.7909 32.5689C13.5848 32.4643 13.3256 32.3862 13.0135 32.4138H12.8984H12.4377L11.8619 32.1839C11.7064 30.977 11.7064 30.977 12.9076 29.6551C13.5675 28.9276 14.2239 28.0873 14.3667 27.7873L14.6258 27.2413L14.7767 27.1551C14.8596 27.108 14.9633 26.9781 15.0865 26.6666V25.6322L14.9713 24.8276L14.8884 23.477C14.6742 19.962 16.4385 17.1149 20.7295 15.5172L20.8446 17.0115L21.0462 17.7873C21.5195 19.608 22.9671 21.7115 24.6819 23.0712C25.9003 24.0368 27.2143 26.5459 27.5241 29.1954L27.6013 29.454C27.7337 29.8954 27.9237 29.9896 27.7544 29.1954L27.8408 28.7643C27.9859 28.0379 28.2254 28.2195 29.088 29.7126C29.8849 31.0919 29.8849 31.0919 29.9517 30.3735C30.0116 29.723 30.098 29.5333 30.8707 28.362C32.3229 26.1574 33.4585 25.7758 35.24 27.5862L35.498 28.3954C35.6396 28.8402 35.7686 29.5126 35.8158 30.5747L35.7203 31.0057C35.498 32.0046 34.8934 33.0264 33.1671 34.7126L33.0231 34.7908C32.6109 35.0149 32.3034 34.9276 32.1168 34.5333C31.8565 33.9839 31.2289 33.9563 30.8638 34.8276L30.7302 34.6839C30.6231 34.5689 30.5886 34.5689 30.5183 34.8276L30.3375 35.6034C29.5176 39.1207 28.5191 40.1161 21.9963 42.8735L20.7007 43.2195C19.9878 43.4103 19.3141 43.5908 19.002 43.6781H18.0807L17.5049 43.7931C15.8063 43.3574 15.4262 42.7666 15.3191 41.1988C15.2385 40.0241 15.2028 39.885 14.7571 39.0517L14.2803 38.1609ZM33.2823 29.7701H33.189C33.1372 29.7701 32.8262 29.5655 32.498 29.3161C31.8853 28.8505 31.8151 28.8574 32.1306 29.6551V29.7931C32.1306 29.8689 32.027 30.0149 31.9003 30.1172C31.7633 30.2276 31.67 30.4425 31.67 30.6436C31.67 30.8322 31.5341 31.262 31.3682 31.6011C30.911 32.5333 31.0158 32.7643 31.7667 32.4839C32.1732 32.3322 32.5141 32.285 32.8942 32.3287C33.6519 32.4149 33.9675 32.2218 34.0988 31.5919C34.2208 31.0046 33.8915 30.0471 33.2823 29.7701ZM33.6277 27.3563L33.0807 27.3276C32.6304 27.3034 32.498 27.3448 32.1306 27.8161L32.0546 27.8632C31.6492 28.1126 31.9959 28.4517 32.7283 28.5218C33.9732 28.6413 34.4028 29.0689 34.5433 30.3253C34.655 31.331 34.8681 31.162 35.0293 29.9368C35.1894 28.7207 35.0201 28.2747 33.6277 27.3563ZM21.075 27.0115L21.5068 26.6758C21.9387 26.3413 21.9387 26.3413 17.5049 26.4368L17.4254 26.0057C17.293 25.2954 16.9729 25.3689 17.0869 26.0827C17.1237 26.3149 17.1041 26.5413 16.9291 26.6666L16.7851 26.6276C16.4915 26.5471 16.4396 26.7103 16.693 26.9149C16.837 27.031 17.1168 27.1287 17.316 27.131C17.5821 27.1345 17.7157 27.2103 17.9656 27.7011L18.0807 27.8161L18.0519 27.9862C18.0358 28.0804 17.855 28.1896 17.6489 28.231C17.4427 28.2712 17.2746 28.3322 17.2746 28.3666C17.2746 28.4954 17.3886 28.5345 17.7352 28.3908L17.8262 28.477C17.8769 28.5241 17.8988 28.654 17.8757 28.7643C17.8527 28.8747 17.8504 28.9609 17.8711 28.9563C17.8907 28.9505 18.1671 28.9092 18.4838 28.8632C19.4834 28.7172 20.756 27.985 21.075 27.0115ZM17.6546 25.4287C18.1982 25.1896 18.8189 25.2643 19.8001 25.6896C20.3114 25.9103 20.7617 26.0724 20.802 26.0471C20.8412 26.023 20.8423 25.9505 20.8032 25.8873C20.4727 25.3551 17.8274 24.9459 17.4876 25.3747C17.3448 25.5563 17.3575 25.5597 17.6546 25.4287ZM17.1594 23.5632L17.361 23.4931C18.0991 23.2345 19.6723 23.3115 22.1114 24.023L22.3498 24.1494C22.48 24.2184 22.6147 24.2482 22.6481 24.2149C22.6826 24.1816 22.6009 24.0988 22.2266 23.908L22.0826 23.8425C18.5748 22.2322 17.8919 22.0942 15.5471 22.9885L15.5183 23.331C15.5022 23.5195 15.5287 23.7 15.6623 23.7931L15.7498 24.0517C15.9203 24.5586 16.8704 24.6149 16.9809 24.1241C17.0005 24.0368 17.0489 23.8747 17.1594 23.5632Z" fill="#F4E0C6"/>
<path d="M34.5489 39.4253L34.1171 39.1655C33.8799 39.0218 33.5562 38.8437 33.3973 38.7689C33.1417 38.6483 33.1382 38.6391 33.3685 38.6919C33.5113 38.7241 33.6276 38.7218 33.6276 38.6862V38.5735C33.6276 38.5483 33.3167 38.3931 32.2457 37.931L32.7351 37.7873C33.0046 37.708 33.2891 37.6046 33.5125 37.4712L33.8292 37.4425C34.9992 37.3368 35.8975 34.7954 35.8157 30.5747C35.7685 29.5126 35.6395 28.8402 35.4979 28.3954L35.2399 27.5862L35.1501 27.1597C35.02 26.5494 33.8845 24.8965 32.8468 23.808C31.3267 22.2115 28.5443 19.631 28.405 19.6885C28.0687 19.8264 28.9774 20.9379 30.3743 22.0977C32.005 23.4529 31.9152 23.3333 31.3094 23.3333C30.5298 23.3333 28.2 22.3149 26.9344 21.4207C26.3401 21 25.4142 20.4609 24.8752 20.2218C24.038 19.8494 23.6752 19.5862 20.8445 17.0115L20.7294 15.5172V15.2241C20.7294 14.3126 18.5217 14.4793 17.0061 15.5069C14.5313 17.1839 13.1355 20.6333 14.1075 22.6724C14.4069 23.3023 14.4772 23.7793 14.1651 23.908C12.2349 19.8678 13.5225 14.7034 16.6192 11.577C18.4088 9.77124 22.2023 7.99423 24.9904 7.65745C27.7877 7.31952 29.9102 7.08734 30.547 7.05056L31.2092 7.01147L31.6411 7.34021C32.1835 7.75285 33.8165 10.4609 35.6384 13.9655C42.0115 26.2322 42.0714 34.2218 34.6641 39.4253H34.5489Z" fill="#542866"/>
<path d="M36.161 40.4598L35.5656 40.2586C35.2374 40.1483 34.9483 39.9931 34.9218 39.9138C34.8965 39.8345 34.7756 39.7701 34.4336 39.7701L34.6639 39.4253C42.0712 34.2218 42.0113 26.2322 35.6382 13.9655C33.8163 10.4609 32.1833 7.75285 31.6408 7.34021L31.209 7.01147C38.5817 7.50343 43.179 10.0299 46.3725 14.5241C48.3107 17.2517 49.186 19.7195 49.1906 22.4632C49.1929 23.9448 49.194 23.954 49.6593 25.0276C50.5115 26.9954 50.4136 28.4207 49.3069 30.1517C48.7794 30.977 48.7794 30.977 48.776 32.7126C48.7702 34.8862 48.4431 35.5666 46.9172 36.5816C46.0927 37.1299 46.0098 37.223 45.6435 38.0218C44.8558 39.7379 43.7215 40.423 41.8616 40.3069C40.946 40.2494 40.7307 40.2747 40.019 40.5299C39.5249 40.7069 38.979 40.8161 38.6082 40.8115L38.0036 40.8046L37.2263 40.7149C36.799 40.6655 36.3844 40.5873 36.161 40.4598ZM49.1652 25.1287C48.9395 24.8885 48.6389 25.3437 48.8439 25.6149C48.9142 25.7069 48.9879 25.6643 49.0881 25.4735C49.1675 25.323 49.2021 25.1678 49.1652 25.1287Z" fill="#301928"/>
<path d="M25.5664 51.954L25.5618 51.6954C25.5584 51.5529 25.5848 51.3207 25.6816 50.9196L25.7967 50.4598V49.5403L25.9119 49.0805L27.5115 45.8334C28.3902 44.0472 29.6397 41.2977 30.287 39.723C31.4639 36.8598 31.4639 36.8598 32.2459 37.9311C33.3169 38.3931 33.6278 38.5483 33.6278 38.5736V38.6862C33.6278 38.7219 33.5115 38.7242 33.3687 38.692C33.1384 38.6391 33.1419 38.6483 33.3975 38.769C33.5564 38.8437 33.88 39.0219 34.1173 39.1655L34.5491 39.4253L34.29 39.5357C34.0643 39.6311 34.0562 39.6529 34.434 39.7701C34.776 39.7701 34.8969 39.8345 34.9223 39.9138C34.9488 39.9931 35.2378 40.1483 35.566 40.2586L36.1614 40.4598L35.9426 40.5483C35.733 40.6334 35.7342 40.6426 35.9714 40.7655C36.4436 41.0104 37.487 41.3357 37.8889 41.2644C38.695 44.1127 39.2075 45.7035 39.5484 46.6368C39.8893 47.5701 40.1864 48.4334 40.2083 48.5563C40.2486 48.7736 40.1541 48.7805 37.1403 48.7885C34.0309 48.7977 34.0309 48.7977 32.0731 49.338C30.3065 49.8242 27.629 50.8782 25.9983 51.7288L25.5664 51.954Z" fill="#F4E0C6"/>
<path d="M27.7545 29.1954H27.5242C27.2144 26.546 25.9004 24.0368 24.682 23.0712C22.9672 21.7115 21.5196 19.608 21.0463 17.7873L20.8447 17.0115C23.6754 19.5862 24.0382 19.8494 24.8754 20.2218C25.4144 20.4609 26.3403 21 26.9346 21.4207C28.2002 22.3149 30.5299 23.3333 31.3096 23.3333C31.9154 23.3333 32.0052 23.4529 30.3745 22.0977C28.9775 20.9379 28.0689 19.8264 28.4052 19.6885C28.5445 19.631 31.3269 22.2115 32.847 23.808C33.8847 24.8965 35.0202 26.5494 35.1503 27.1597L35.2401 27.5862C33.4585 25.7758 32.323 26.1575 30.8708 28.3621C30.0981 29.5333 30.0117 29.723 29.9518 30.3735C29.885 31.0919 29.885 31.0919 29.0881 29.7126C28.2255 28.2195 27.986 28.0379 27.8409 28.7643L27.7545 29.1954Z" fill="#301928"/>
<path d="M25.9116 49.0804L25.7101 48.231C25.5155 47.408 25.5155 47.362 25.7297 46.7896C25.9704 46.1483 25.8932 45.9391 25.4637 46.0701C25.261 46.1322 25.2068 46.0781 25.1182 45.7264C24.9938 45.2276 23.8583 43.3528 23.5105 43.0724C23.3447 42.9379 23.0602 42.8735 21.9961 42.8735C28.5189 40.1161 29.5174 39.1207 30.3374 35.6034L30.5182 34.8276L30.6322 35.0287C30.7393 35.2207 30.7485 35.2207 30.8637 34.8276C31.2287 33.9563 31.8564 33.9839 32.1166 34.5333C32.3032 34.9276 32.6107 35.0149 33.023 34.7908L33.1669 34.7126L33.2717 34.8563C33.6391 35.3609 33.6725 35.5253 33.4744 35.8597C33.2901 36.1701 33.2913 36.1919 33.4779 36.2276C33.798 36.2896 33.54 36.5517 32.8214 36.5517V36.2931C32.8226 35.808 32.5047 35.7207 31.9381 36.0517C31.4337 36.3471 31.4337 36.3471 31.8103 36.5494C32.0187 36.6609 32.1731 36.7965 32.1546 36.8528C32.0947 37.0345 32.5381 37.0253 32.7063 36.6666L33.1727 36.6954C33.6299 36.7241 33.6368 36.731 33.5124 37.4712C33.289 37.6046 33.0045 37.708 32.7351 37.7873L32.2456 37.931C31.4637 36.8597 31.4637 36.8597 30.2867 39.723C29.6395 41.2977 28.39 44.0471 27.5113 45.8333L25.9116 49.0804ZM28.9093 40.054C28.6491 40.2896 28.5063 40.9793 28.6698 41.2103C28.7366 41.3034 28.8379 41.3793 28.8967 41.3793C28.9543 41.3793 29.0936 41.1414 29.2042 40.8505C29.4598 40.1816 29.2871 39.7138 28.9093 40.054ZM31.9577 34.5977C31.6353 34.5977 31.4303 34.8505 31.5143 35.1437C31.5362 35.223 31.6111 35.2873 31.6813 35.2873C31.7504 35.2873 31.8541 35.2586 31.9116 35.223C32.0187 35.1563 32.0602 34.5977 31.9577 34.5977Z" fill="#EDC1A3"/>
<path d="M14.1649 23.9081C14.477 23.7793 14.4068 23.3023 14.1073 22.6724C13.1354 20.6334 14.5311 17.1839 17.006 15.5069C18.5216 14.4793 20.7292 14.3127 20.7292 15.2242V15.5173C16.4382 17.115 14.6739 19.9621 14.8882 23.477L14.9711 24.8276L14.8559 25.0575L14.1649 23.9081Z" fill="#301928"/>
<path d="M33.5127 37.4713C33.6371 36.731 33.6302 36.7241 33.173 36.6954L32.7065 36.6667L32.8217 36.5517C33.5403 36.5517 33.7983 36.2896 33.4781 36.2276C33.2916 36.1919 33.2904 36.1701 33.4747 35.8598C33.6728 35.5253 33.6394 35.3609 33.272 34.8563L33.1672 34.7126C34.8935 33.0264 35.4981 32.0046 35.7204 31.0057L35.8159 30.5747C35.8977 34.7954 34.9994 37.3368 33.8294 37.4425L33.5127 37.4713Z" fill="#301928"/>
<path d="M32.1306 29.6552L32.3322 29.7954C32.9483 30.2253 33.5022 30.2988 33.2823 29.7701C33.8915 30.0471 34.2209 31.0046 34.0988 31.5919C33.9675 32.2218 33.652 32.4149 32.8942 32.3287C32.5141 32.285 32.1733 32.3322 31.7667 32.4839C31.0159 32.7643 30.9111 32.5333 31.3683 31.6011C31.5341 31.262 31.67 30.8322 31.67 30.6437C31.67 30.4425 31.7633 30.2276 31.9003 30.1172C32.027 30.0149 32.1306 29.8689 32.1306 29.7931V29.6552ZM31.9579 31.6149C31.8059 31.6126 31.5548 31.7747 31.5548 31.8747C31.5548 31.9184 31.571 31.954 31.5905 31.954C31.6101 31.954 31.7264 31.8781 31.8496 31.785C31.9729 31.6919 32.0212 31.6161 31.9579 31.6149Z" fill="#EDC1A3"/>
<path d="M19.002 43.6781C19.314 43.5908 19.9877 43.4103 20.7006 43.2195L21.9962 42.8735C23.0603 42.8735 23.3448 42.9379 23.5106 43.0724C23.8584 43.3528 24.9939 45.2276 25.1183 45.7264C25.2069 46.0781 25.2611 46.1322 25.4638 46.0701C25.8933 45.9391 25.9705 46.1482 25.7298 46.7896C25.5156 47.362 25.5156 47.408 25.7102 48.231L25.9117 49.0804L25.7966 49.5402C25.6895 49.4735 25.4661 48.6827 25.2311 47.7402C24.5332 44.9333 23.4922 43.2184 22.4891 43.2184C22.3129 43.2184 21.6772 43.3345 21.0749 43.477C20.4737 43.6195 19.7609 43.723 19.4914 43.7069L19.002 43.6781Z" fill="#EAC189"/>
<path d="M13.7043 35.6322C15.5342 36.4621 16.2597 36.7414 16.497 36.7885C16.7342 36.8357 16.9288 36.9322 16.9288 37.0046C16.9288 37.1414 15.5642 37.8793 15.115 37.9851L14.8559 38.046H14.1649C13.7492 37.8736 13.778 37.577 14.0716 37.146C14.3239 36.7759 14.3239 36.7759 13.9703 36.5782C13.4647 36.2943 13.2344 35.8805 13.5027 35.7391L13.7043 35.6322Z" fill="#EF7768"/>
<path d="M17.1592 23.5632H16.8137L16.4774 23.3356C16.292 23.2091 16.1238 23.1517 16.1031 23.2057C16.0824 23.2597 15.9488 23.2321 15.5469 22.9884C17.8916 22.0942 18.5745 22.2321 22.0824 23.8425L22.2263 23.908L22.1112 24.0229C19.672 23.3114 18.0989 23.2344 17.3607 23.493L17.1592 23.5632Z" fill="#472828"/>
<path d="M18.0806 27.8161H18.2971C18.4998 27.8161 18.8568 27.5138 18.7589 27.4242C18.6702 27.3437 17.9654 27.4989 17.9654 27.7012C17.7155 27.2104 17.5819 27.1345 17.3159 27.1311C17.1167 27.1288 16.8368 27.0311 16.6929 26.915C16.4395 26.7104 16.4913 26.5472 16.785 26.6276L16.929 26.6667L17.5048 26.4368C21.9386 26.3414 21.9386 26.3414 21.5067 26.6759L21.0748 27.0115L20.499 27.2414L20.4691 27.1138C20.4483 27.0265 20.1973 27.0127 19.6629 27.0702C18.8867 27.1529 18.8867 27.1529 18.8867 27.5426C18.8867 27.7564 18.9386 27.9311 19.1171 27.9311L18.6276 28.1771C18.3581 28.3127 18.0472 28.4161 17.7351 28.3908C17.3885 28.5345 17.2745 28.4954 17.2745 28.3667C17.2745 28.3322 17.4426 28.2713 17.6487 28.2311C17.8549 28.1897 18.0357 28.0805 18.0518 27.9862L18.0806 27.8161Z" fill="#281619"/>
<path d="M32.1307 27.8161L32.1595 28.0126C32.1848 28.1828 32.2493 28.1678 32.6466 27.8977C32.8988 27.7264 33.2224 27.5862 33.3664 27.5862C33.5103 27.5862 33.6278 27.5345 33.6278 27.3563C35.0201 28.2747 35.1894 28.7207 35.0294 29.9368C34.8681 31.1621 34.6551 31.331 34.5434 30.3253C34.4029 29.069 33.9733 28.6414 32.7284 28.5218C31.996 28.4517 31.6493 28.1126 32.0547 27.8632L32.1307 27.8161ZM34.4892 28.3667C34.4109 28.4207 34.4201 28.5345 34.518 28.7069C34.5986 28.8494 34.6908 28.9655 34.7219 28.9655C34.7541 28.9655 34.776 28.9012 34.7714 28.8218C34.7553 28.531 34.6032 28.2862 34.4892 28.3667Z" fill="#EDC1A3"/>
<path d="M23.4932 4.25284C25.155 3.84364 26.8456 3.52985 28.5603 3.44824C26.8456 3.52985 25.1561 3.84594 23.4932 4.25284Z" fill="#C693AF"/>
<path d="M17.7354 28.3908C18.0474 28.4161 18.3584 28.3126 18.6279 28.177L19.1173 27.931L20.4993 27.2414L21.0751 27.0115C20.7561 27.985 19.4835 28.7172 18.4839 28.8632C18.1672 28.9092 17.8908 28.9506 17.8712 28.9563C17.8505 28.9609 17.8528 28.8747 17.8759 28.7643C17.8989 28.654 17.877 28.5241 17.8263 28.477L17.7354 28.3908Z" fill="#EDC1A3"/>
<path d="M24.7602 51.2644V51.4564C24.7602 51.5621 24.6726 51.746 24.5644 51.8644C24.3225 52.1311 24.2707 52.4138 24.4642 52.4138C24.5437 52.4138 24.7083 52.3046 24.8293 52.1713C24.9663 52.0196 25.1229 51.9552 25.4511 52.069C23.673 53.6184 22.602 53.392 23.8677 52.1437L24.7602 51.2644Z" fill="#EAC189"/>
<path d="M41.7179 49.4851C40.9406 49.2241 40.4224 48.9897 40.4224 48.8988C40.4224 48.6483 44.5717 50.2425 45.2016 50.7345C45.3283 50.8345 45.3928 50.9425 45.3456 50.9747C45.2984 51.008 44.7536 50.7839 44.1364 50.477C43.5191 50.1713 42.4308 49.7241 41.7179 49.4851Z" fill="#E2AF51"/>
<path d="M24.7602 51.2644L25.4512 50.9196H25.6816C25.5848 51.3207 25.5583 51.5529 25.5618 51.6954L25.5664 51.954L25.4512 52.069C25.123 51.9552 24.9664 52.0196 24.8293 52.1713C24.7084 52.3046 24.5437 52.4138 24.4643 52.4138C24.2708 52.4138 24.3226 52.1311 24.5645 51.8644C24.6727 51.746 24.7602 51.5621 24.7602 51.4563V51.2644Z" fill="#EDC1A3"/>
<path d="M32.8213 36.5517L32.7062 36.6667C32.538 37.0253 32.0946 37.0345 32.1545 36.8529C32.173 36.7966 32.0186 36.6609 31.8102 36.5494C31.4336 36.3471 31.4336 36.3471 31.938 36.0517C32.5046 35.7207 32.8225 35.8081 32.8213 36.2931V36.5517Z" fill="#EAC189"/>
<path d="M36.1612 40.4597C36.3846 40.5873 36.7992 40.6655 37.2265 40.7149L38.0038 40.8045L37.8887 41.2643C37.4868 41.3356 36.4434 41.0103 35.9712 40.7655C35.734 40.6425 35.7328 40.6333 35.9424 40.5482L36.1612 40.4597Z" fill="#EDC1A3"/>
<path d="M15.6621 23.7931L16.8137 23.5632H17.1592C17.0487 23.8747 17.0003 24.0368 16.9807 24.1242C16.8702 24.615 15.9201 24.5586 15.7496 24.0517L15.6621 23.7931Z" fill="#EDC1A3"/>
<path d="M20.499 27.2414L19.117 27.9311C18.9385 27.9311 18.8867 27.7563 18.8867 27.5425C18.8867 27.1529 18.8867 27.1529 19.6629 27.0701C20.1973 27.0127 20.4483 27.0265 20.4691 27.1138L20.499 27.2414Z" fill="#F4E0C6"/>
<path d="M28.9092 40.054C29.287 39.7137 29.4597 40.1816 29.2041 40.8505C29.0935 41.1413 28.9542 41.3793 28.8966 41.3793C28.8378 41.3793 28.7365 41.3034 28.6697 41.2103C28.5062 40.9793 28.649 40.2896 28.9092 40.054Z" fill="#EAC189"/>
<path d="M32.1303 29.6552C31.8147 28.8575 31.885 28.8506 32.4977 29.3161C32.8259 29.5655 33.1368 29.7701 33.1886 29.7701H33.2819C33.5019 30.2988 32.9479 30.2253 32.3318 29.7954L32.1303 29.6552Z" fill="#E2A589"/>
<path d="M32.1304 27.8161C32.4977 27.3448 32.6302 27.3034 33.0805 27.3276L33.6275 27.3563C33.6275 27.5345 33.51 27.5862 33.3661 27.5862C33.2221 27.5862 32.8985 27.7264 32.6463 27.8977C32.249 28.1678 32.1845 28.1827 32.1592 28.0126L32.1304 27.8161Z" fill="#E2A589"/>
<path d="M15.5472 22.9885C15.9491 23.2322 16.0827 23.2598 16.1034 23.2058C16.1241 23.1517 16.2923 23.2092 16.4777 23.3357L16.814 23.5632L15.6623 23.7931C15.5287 23.7 15.5022 23.5196 15.5184 23.3311L15.5472 22.9885Z" fill="#643730"/>
<path d="M17.6544 25.4287C17.3573 25.5598 17.3446 25.5563 17.4874 25.3747C17.8272 24.946 20.4725 25.3552 20.803 25.8874C20.8421 25.9506 20.841 26.023 20.8018 26.0471C20.7615 26.0724 20.3112 25.9103 19.7999 25.6897C18.8187 25.2644 18.198 25.1897 17.6544 25.4287Z" fill="#EDC1A3"/>
<path d="M13.4739 33.2184L13.3012 33.0713C13.2067 32.9908 13.1284 32.8609 13.1284 32.6437L14.1649 32.7586C14.4424 32.9241 14.7154 32.9437 14.9491 32.908C15.3499 32.8483 15.3637 32.8563 15.1841 33.0448C15.0113 33.2276 14.9376 33.231 14.3779 33.0885C13.8873 32.9632 13.7445 32.9609 13.6754 33.0747L13.5891 33.2184H13.4739Z" fill="#EDC1A3"/>
<path d="M14.6257 27.2413C13.8172 26.9804 13.314 26.6724 13.3923 26.5954C13.4211 26.5655 13.6491 26.6046 13.8967 26.6827C14.1489 26.7609 14.5117 26.7885 14.7178 26.7448L15.0863 26.6666C14.9631 26.9781 14.8595 27.108 14.7765 27.1551L14.6257 27.2413Z" fill="#281619"/>
<path d="M11.8618 32.184L12.4376 32.4138L12.471 32.5541C12.4964 32.6644 12.5459 32.6644 12.8983 32.4138H13.0134L13.1286 32.6437C13.1286 32.861 13.2069 32.9909 13.3014 33.0713L13.4741 33.2184C12.6265 32.9069 12.2637 32.6736 12.1209 32.5001L11.8618 32.184Z" fill="#EAC189"/>
<path d="M16.9292 26.6666C17.1042 26.5413 17.1238 26.3149 17.087 26.0827C16.973 25.3689 17.2931 25.2954 17.4256 26.0057L17.505 26.4367L16.9292 26.6666Z" fill="#EDC1A3"/>
<path d="M31.9579 34.5977C32.0604 34.5977 32.0189 35.1563 31.9118 35.2229C31.8542 35.2586 31.7506 35.2873 31.6815 35.2873C31.6112 35.2873 31.5364 35.2229 31.5145 35.1436C31.4304 34.8505 31.6354 34.5977 31.9579 34.5977Z" fill="#F4E0C6"/>
<path d="M17.9653 27.7011C17.9653 27.4988 18.6701 27.3437 18.7588 27.4241C18.8567 27.5138 18.4997 27.8161 18.297 27.8161H18.0805L17.9653 27.7011Z" fill="#472828"/>
<path d="M13.1288 32.6437L13.0137 32.4138C13.3258 32.3862 13.5849 32.4644 13.791 32.569L14.1653 32.7586L13.1288 32.6437Z" fill="#E2A589"/>
<path d="M49.1655 25.1288C49.2023 25.1679 49.1678 25.323 49.0883 25.4736C48.9881 25.6644 48.9144 25.7069 48.8442 25.615C48.6392 25.3437 48.9398 24.8885 49.1655 25.1288Z" fill="#281619"/>
<path d="M27.5239 29.1954H27.7543C27.9235 29.9897 27.7335 29.8954 27.6011 29.4541L27.5239 29.1954Z" fill="#643730"/>
<path d="M17.5049 43.7932L18.0807 43.6782C18.2028 43.8702 17.7306 43.9552 17.5993 43.861L17.5049 43.7932Z" fill="#EAC189"/>
<path d="M34.489 28.3667C34.603 28.2862 34.755 28.5311 34.7711 28.8219C34.7757 28.9012 34.7538 28.9655 34.7216 28.9655C34.6905 28.9655 34.5984 28.8495 34.5178 28.7069C34.4199 28.5345 34.4107 28.4207 34.489 28.3667Z" fill="#EAC189"/>
<path d="M14.856 25.0575L14.9711 24.8276L15.0863 25.6322L14.856 25.0575Z" fill="#EAC189"/>
<path d="M30.5181 34.8276C30.5883 34.569 30.6229 34.569 30.73 34.6839L30.8636 34.8276C30.7484 35.2207 30.7392 35.2207 30.6321 35.0287L30.5181 34.8276Z" fill="#EAC189"/>
<path d="M34.5491 39.4253H34.6643L34.434 39.7701C34.0562 39.6529 34.0643 39.631 34.29 39.5356L34.5491 39.4253Z" fill="#643730"/>
<path d="M12.4375 32.4138H12.8982C12.5458 32.6644 12.4962 32.6644 12.4709 32.554L12.4375 32.4138Z" fill="#EDC1A3"/>
<path d="M22.1113 24.023L22.2265 23.9081C22.6008 24.0989 22.6825 24.1816 22.648 24.215C22.6146 24.2483 22.4799 24.2184 22.3497 24.1495L22.1113 24.023Z" fill="#EDC1A3"/>
<path d="M25.4512 50.9195L25.7967 50.4597L25.6815 50.9195H25.4512Z" fill="#EAC189"/>
<path d="M14.165 38.046H14.856L14.2802 38.161L14.165 38.046Z" fill="#E2A589"/>
<path d="M31.9578 31.6149C32.0211 31.616 31.9727 31.6919 31.8495 31.785C31.7263 31.8781 31.61 31.954 31.5904 31.954C31.5708 31.954 31.5547 31.9183 31.5547 31.8747C31.5547 31.7747 31.8057 31.6126 31.9578 31.6149Z" fill="#EAC189"/>
</svg>
