<svg width="51" height="40" viewBox="0 0 51 40" fill="none" xmlns="http://www.w3.org/2000/svg">
<path d="M9.00586 29.54C8.56586 29.54 8.22586 29.42 7.98586 29.18C7.74586 28.92 7.62586 28.57 7.62586 28.13V23.21H2.79586C2.37586 23.21 2.04586 23.1 1.80586 22.88C1.56586 22.64 1.44586 22.31 1.44586 21.89C1.44586 21.47 1.56586 21.15 1.80586 20.93C2.04586 20.69 2.37586 20.57 2.79586 20.57H7.62586V15.8C7.62586 15.36 7.74586 15.02 7.98586 14.78C8.22586 14.54 8.57586 14.42 9.03586 14.42C9.47586 14.42 9.80586 14.54 10.0259 14.78C10.2659 15.02 10.3859 15.36 10.3859 15.8V20.57H15.2159C15.6559 20.57 15.9859 20.69 16.2059 20.93C16.4459 21.15 16.5659 21.47 16.5659 21.89C16.5659 22.31 16.4459 22.64 16.2059 22.88C15.9859 23.1 15.6559 23.21 15.2159 23.21H10.3859V28.13C10.3859 28.57 10.2659 28.92 10.0259 29.18C9.80586 29.42 9.46586 29.54 9.00586 29.54Z" fill="#8E50D2"/>
<path d="M45.4585 17.25H23.4585V28.25C23.4585 32.375 24.8335 33.75 28.9585 33.75H39.9585C44.0835 33.75 45.4585 32.375 45.4585 28.25V17.25Z" stroke="#8E50D2" stroke-width="2" stroke-miterlimit="10" stroke-linecap="round" stroke-linejoin="round"/>
<path d="M47.5625 13.125V14.5C47.5625 16.0125 46.8338 17.25 44.8125 17.25H24.1875C22.0838 17.25 21.4375 16.0125 21.4375 14.5V13.125C21.4375 11.6125 22.0838 10.375 24.1875 10.375H44.8125C46.8338 10.375 47.5625 11.6125 47.5625 13.125Z" stroke="#8E50D2" stroke-width="2" stroke-miterlimit="10" stroke-linecap="round" stroke-linejoin="round"/>
<path d="M34.0048 10.3747H26.4148C25.9473 9.86599 25.9611 9.08224 26.4561 8.58724L28.4086 6.63474C28.9173 6.12599 29.7561 6.12599 30.2648 6.63474L34.0048 10.3747Z" stroke="#8E50D2" stroke-width="2" stroke-miterlimit="10" stroke-linecap="round" stroke-linejoin="round"/>
<path d="M42.5714 10.3747H34.9814L38.7214 6.63474C39.2302 6.12599 40.0689 6.12599 40.5777 6.63474L42.5302 8.58724C43.0252 9.08224 43.0389 9.86599 42.5714 10.3747Z" stroke="#8E50D2" stroke-width="2" stroke-miterlimit="10" stroke-linecap="round" stroke-linejoin="round"/>
<path d="M30.2925 17.25V24.3175C30.2925 25.4175 31.5025 26.0637 32.4237 25.4725L33.7162 24.62C34.1837 24.3175 34.775 24.3175 35.2287 24.62L36.4525 25.445C37.36 26.05 38.5837 25.4038 38.5837 24.3038V17.25H30.2925Z" stroke="#8E50D2" stroke-width="2" stroke-miterlimit="10" stroke-linecap="round" stroke-linejoin="round"/>
</svg>
