<svg width="32" height="31" viewBox="0 0 32 31" fill="none" xmlns="http://www.w3.org/2000/svg">
<path fill-rule="evenodd" clip-rule="evenodd" d="M2.75541 27.7072C2.36488 28.0977 1.73172 28.0977 1.34119 27.7072C0.950668 27.3167 0.950668 26.6835 1.34119 26.293L4.77998 22.8542C2.43883 20.4376 0.995376 17.1456 0.988633 13.5152C0.974826 6.0818 6.98965 0.044639 14.4231 0.0308318C18.0715 0.0240552 21.3835 1.46948 23.8121 3.82209L27.3412 0.293001C27.7317 -0.097522 28.3649 -0.0975232 28.7554 0.293003C29.1459 0.683527 29.1459 1.31669 28.7554 1.70722L25.144 5.31864C26.8726 7.57782 27.9019 10.401 27.9076 13.4652C27.9138 16.8221 26.6906 19.8943 24.6624 22.2555L30.7566 28.327C31.1479 28.7168 31.149 29.35 30.7592 29.7412C30.3694 30.1325 29.7363 30.1337 29.345 29.7439L23.2508 23.6723C20.8972 25.7089 17.8298 26.9434 14.4731 26.9496C11.3909 26.9553 8.5488 25.9246 6.27657 24.1861L2.75541 27.7072ZM7.70555 22.7571C9.60312 24.1401 11.9414 24.9543 14.4694 24.9496C17.5728 24.9438 20.3858 23.705 22.4455 21.6975C22.4777 21.6519 22.5142 21.6084 22.555 21.5675C22.5957 21.5265 22.6392 21.4899 22.6847 21.4575C24.6848 19.3902 25.9133 16.5725 25.9076 13.4689C25.9029 10.9562 25.0899 8.63391 23.715 6.74762L7.70555 22.7571ZM22.3977 5.23652C20.332 3.24661 17.5216 2.02508 14.4268 2.03083C8.09792 2.04258 2.97687 7.18266 2.98863 13.5115C2.99435 16.5909 4.21421 19.3844 6.1944 21.4398L22.3977 5.23652Z" fill="#C94E70"/>
</svg>
