<svg width="31" height="31" viewBox="0 0 31 31" fill="none" xmlns="http://www.w3.org/2000/svg">
<path fill-rule="evenodd" clip-rule="evenodd" d="M2.48056 13.9668C2.46881 7.63794 7.58985 2.49786 13.9188 2.4861C20.2477 2.47435 25.3878 7.59537 25.3995 13.9242C25.4053 17.0278 24.1767 19.8455 22.1766 21.9128C22.1311 21.9452 22.0877 21.9818 22.0469 22.0227C22.0062 22.0636 21.9697 22.1072 21.9375 22.1528C19.8777 24.1603 17.0647 25.3991 13.9613 25.4049C7.63242 25.4166 2.49232 20.2956 2.48056 13.9668ZM22.7428 24.1276C20.3891 26.1642 17.3217 27.3986 13.965 27.4049C6.53158 27.4187 0.494374 21.4039 0.480566 13.9705C0.466759 6.53707 6.48158 0.499915 13.915 0.486108C21.3485 0.472301 27.3857 6.48707 27.3995 13.9205C27.4057 17.2774 26.1825 20.3495 24.1544 22.7108L30.2485 28.7823C30.6398 29.1721 30.641 29.8053 30.2512 30.1965C29.8614 30.5878 29.2282 30.5889 28.837 30.1992L22.7428 24.1276Z" fill="#DFCEF3"/>
</svg>
