<svg width="60" height="60" viewBox="0 0 60 60" fill="none" xmlns="http://www.w3.org/2000/svg">
<g clip-path="url(#clip0_1004_653)">
<path d="M0 0C19.8 0 39.6 0 60 0C60 19.8 60 39.6 60 60C40.2 60 20.4 60 0 60C0 40.2 0 20.4 0 0Z" fill="#EFC870"/>
<path fill-rule="evenodd" clip-rule="evenodd" d="M32.4118 7.30909L32.576 7.34604C35.2776 7.9732 37.7563 9.62224 39.283 12.148C39.356 12.2712 39.4282 12.395 39.5 12.5191L39.5652 12.6315C40.8326 14.8437 41.145 17.2972 41.1408 19.8516C41.1405 20.0364 41.1409 20.2213 41.142 20.4061C41.1474 21.3192 41.1374 22.2297 41.0732 23.1399C41.1312 23.1584 41.1916 23.1871 41.2646 23.2274C41.7147 23.6155 42.0739 24.1413 42.1536 24.7644C42.2579 26.5951 41.9294 28.4749 40.8622 29.9588C40.5404 30.3312 40.103 30.7164 39.6114 30.7516L39.4384 30.7472L39.2632 30.7438L39.131 30.7394L39.1222 30.8548C38.9315 33.1227 38.0413 35.2902 36.7522 37.1041C36.7707 37.7685 36.7877 38.1239 36.8838 38.4565C36.9862 38.8112 37.1786 39.1398 37.5586 39.7891C37.8182 40.0083 38.0685 40.2153 38.3952 40.3185L38.5547 40.375C38.5619 40.3966 38.5687 40.4183 38.5753 40.4402C38.9369 40.5561 39.2881 40.6888 39.6387 40.8351L39.7978 40.9009C39.9695 40.972 40.141 41.0434 40.3125 41.1148L40.6757 41.2653C40.9234 41.368 41.171 41.4708 41.4186 41.5737C41.7458 41.7096 42.0732 41.8452 42.4006 41.9806C43.7809 42.5517 45.1595 43.1268 46.5368 43.7052L47.03 43.9122C48.5245 44.5396 50.0146 45.1763 51.4983 45.8288L51.6191 45.8819L51.8494 45.9828L51.8494 45.9828C54.299 47.0556 54.9837 47.3554 55.5712 47.7873C55.7991 47.9548 56.0123 48.1421 56.3082 48.402L56.3085 48.4023L56.3086 48.4024L56.4532 48.5257C58.0266 49.8975 58.6491 51.7191 59.1821 53.6783C59.2466 53.9128 59.3148 54.1454 59.3891 54.377C60.0285 56.386 60.018 57.9576 60.0042 60.0249C60.0022 60.3375 60 60.6615 60 61H0C0 56.7793 0 55.305 0.339046 53.9134C0.52103 53.1665 0.800694 52.4433 1.23047 51.332L1.28411 51.1924C1.6368 50.2912 2.13083 49.5537 2.8125 48.8711L2.95967 48.7219C4.15034 47.5768 5.72902 46.8962 7.24299 46.2434L7.24306 46.2434L7.24321 46.2433L7.24357 46.2432C7.42815 46.1636 7.61177 46.0844 7.79361 46.0049C8.33392 45.7679 8.86974 45.5211 9.40527 45.2735C9.93156 45.0303 10.461 44.796 10.9944 44.5687C11.3935 44.3986 11.7915 44.226 12.1891 44.0522C13.8272 43.337 15.4713 42.6397 17.1259 41.9636C17.3853 41.8575 17.6445 41.751 17.9037 41.6445L17.9258 41.6355C18.2197 41.5148 18.5136 41.3941 18.8075 41.2736L18.9392 41.2197L19.1933 41.1157C19.4132 41.0257 19.6327 40.935 19.8519 40.8434L19.991 40.7855C20.079 40.7488 20.1669 40.712 20.2547 40.675C20.4656 40.5873 20.5275 40.5615 20.5916 40.5539C20.6183 40.5508 20.6453 40.5508 20.6836 40.5508L20.8594 40.4647C21.5909 40.0977 22.0835 39.7158 22.401 38.9259C22.5727 38.3611 22.5821 37.7539 22.5912 37.1631C22.5913 37.1555 22.5914 37.1479 22.5915 37.1403C22.1867 36.5751 21.8357 35.9692 21.5284 35.3306L21.46 35.1928C20.8412 33.9415 20.1624 32.2439 20.2246 30.8022L20.1028 30.8133C19.5402 30.8422 19.1646 30.6601 18.7317 30.2873C17.6869 29.2476 17.237 27.4529 17.1829 25.9788C17.18 25.8282 17.1776 25.6776 17.176 25.527L17.172 25.3118C17.1738 24.579 17.3633 23.9705 17.8538 23.4436C17.9918 23.3227 18.1201 23.2309 18.2687 23.1661C18.2553 23.0037 18.245 22.8414 18.2353 22.6786L18.2191 22.4246C17.9721 18.3187 18.2063 14.3571 20.7969 11.1399C21.3173 10.5059 21.8721 9.96198 22.5003 9.45822L22.5998 9.37687C23.6286 8.54498 24.8699 7.93873 26.1044 7.56959L26.2264 7.53238C26.6781 7.39655 27.1338 7.28968 27.5949 7.19919L27.7145 7.17561C29.2461 6.89092 30.8973 6.9644 32.4118 7.30909Z" fill="#EFC870"/>
<path d="M32.576 7.34604L32.8021 6.37192L32.7955 6.37042L32.576 7.34604ZM32.4118 7.30909L32.1898 8.28415L32.1923 8.28471L32.4118 7.30909ZM39.283 12.148L40.1431 11.6379L40.1388 11.6307L39.283 12.148ZM39.5 12.5191L38.6341 13.0194L38.6351 13.0211L39.5 12.5191ZM39.5652 12.6315L40.4329 12.1344L40.4301 12.1295L39.5652 12.6315ZM41.1408 19.8516L40.1408 19.85L40.1408 19.8501L41.1408 19.8516ZM41.142 20.4061L42.142 20.4003L42.142 20.4002L41.142 20.4061ZM41.0732 23.1399L40.0757 23.0696L40.0204 23.8538L40.7694 24.0927L41.0732 23.1399ZM41.2646 23.2274L41.9176 22.4701L41.8391 22.4024L41.7483 22.3522L41.2646 23.2274ZM42.1536 24.7644L43.152 24.7075L43.15 24.6724L43.1455 24.6374L42.1536 24.7644ZM40.8622 29.9588L41.6188 30.6128L41.648 30.579L41.6741 30.5427L40.8622 29.9588ZM39.6114 30.7516L39.5858 31.7513L39.6343 31.7525L39.6828 31.7491L39.6114 30.7516ZM39.4384 30.7472L39.464 29.7475L39.458 29.7474L39.4384 30.7472ZM39.2632 30.7438L39.2297 31.7433L39.2435 31.7436L39.2632 30.7438ZM39.131 30.7394L39.1644 29.7399L38.2067 29.7079L38.1339 30.6634L39.131 30.7394ZM39.1222 30.8548L40.1187 30.9386L40.1193 30.9308L39.1222 30.8548ZM36.7522 37.1041L35.9371 36.5249L35.7433 36.7975L35.7526 37.1319L36.7522 37.1041ZM36.8838 38.4565L35.923 38.7341L35.923 38.7341L36.8838 38.4565ZM37.5586 39.7891L36.6956 40.2943L36.7823 40.4424L36.9134 40.5531L37.5586 39.7891ZM38.3952 40.3185L38.7292 39.3759L38.7129 39.3701L38.6964 39.3649L38.3952 40.3185ZM38.5547 40.375L39.5034 40.0587L39.349 39.5955L38.8887 39.4325L38.5547 40.375ZM38.5753 40.4402L37.6168 40.7255L37.7674 41.2313L38.2699 41.3924L38.5753 40.4402ZM39.6387 40.8351L39.2536 41.758L39.2562 41.759L39.6387 40.8351ZM39.7978 40.9009L40.1805 39.9771L40.1803 39.977L39.7978 40.9009ZM40.3125 41.1148L39.9284 42.038L39.9295 42.0385L40.3125 41.1148ZM40.6757 41.2653L40.2927 42.1891L40.2927 42.1891L40.6757 41.2653ZM41.4186 41.5737L41.0349 42.4972L41.035 42.4972L41.4186 41.5737ZM42.4006 41.9806L42.7829 41.0566L42.7828 41.0565L42.4006 41.9806ZM46.5368 43.7052L46.1496 44.6272L46.1498 44.6273L46.5368 43.7052ZM47.03 43.9122L47.417 42.9902L47.417 42.9902L47.03 43.9122ZM51.4983 45.8288L51.0956 46.7442L51.0963 46.7445L51.4983 45.8288ZM51.6191 45.8819L51.2171 46.7975L51.2178 46.7978L51.6191 45.8819ZM51.8494 45.9828L51.4481 46.8988L51.4899 46.917L51.5332 46.9315L51.8494 45.9828ZM51.8494 45.9828L52.2506 45.0668L52.2089 45.0485L52.1657 45.0341L51.8494 45.9828ZM55.5712 47.7873L56.1635 46.9815L56.1635 46.9815L55.5712 47.7873ZM56.3082 48.402L55.6482 49.1533L55.6553 49.1594L56.3082 48.402ZM56.3085 48.4023L57.0156 47.6952L56.9895 47.669L56.9615 47.6449L56.3085 48.4023ZM56.3086 48.4024L55.6015 49.1095L55.6295 49.1375L55.6597 49.1632L56.3086 48.4024ZM56.4532 48.5257L57.1105 47.7719L57.1022 47.7649L56.4532 48.5257ZM59.1821 53.6783L58.2172 53.9408L58.2179 53.9433L59.1821 53.6783ZM59.3891 54.377L60.3419 54.0737L60.3413 54.0717L59.3891 54.377ZM60.0042 60.0249L61.0042 60.0315L61.0042 60.0315L60.0042 60.0249ZM60 61V62H61V61H60ZM0 61H-1V62H0V61ZM0.339046 53.9134L-0.632533 53.6767L-0.632534 53.6767L0.339046 53.9134ZM1.23047 51.332L2.16315 51.6927L2.16394 51.6907L1.23047 51.332ZM1.28411 51.1924L0.352861 50.828L0.350644 50.8338L1.28411 51.1924ZM2.8125 48.8711L3.52011 49.5777L3.5245 49.5733L2.8125 48.8711ZM2.95967 48.7219L2.2665 48.0011L2.25696 48.0103L2.24767 48.0197L2.95967 48.7219ZM7.24299 46.2434L7.6389 47.1617L7.66879 47.1488L7.69777 47.134L7.24299 46.2434ZM7.24306 46.2434L6.83692 45.3296L6.81229 45.3405L6.78828 45.3528L7.24306 46.2434ZM7.24321 46.2433L6.85516 45.3217L6.84608 45.3255L6.83708 45.3295L7.24321 46.2433ZM7.24357 46.2432L7.63164 47.1648L7.63948 47.1615L7.24357 46.2432ZM7.79361 46.0049L8.19439 46.9211L8.19529 46.9207L7.79361 46.0049ZM9.40527 45.2735L8.98568 44.3658L8.98566 44.3658L9.40527 45.2735ZM10.9944 44.5687L11.3864 45.4887L11.3865 45.4887L10.9944 44.5687ZM12.1891 44.0522L11.7889 43.1358L11.7886 43.1359L12.1891 44.0522ZM17.1259 41.9636L17.5041 42.8893L17.5044 42.8892L17.1259 41.9636ZM17.9037 41.6445L18.2837 42.5695L18.2838 42.5695L17.9037 41.6445ZM17.9258 41.6355L17.5459 40.7104L17.5457 40.7105L17.9258 41.6355ZM18.8075 41.2736L19.1867 42.199L19.1867 42.1989L18.8075 41.2736ZM18.9392 41.2197L18.5605 40.2942L18.56 40.2943L18.9392 41.2197ZM19.1933 41.1157L18.8146 40.1902L18.8146 40.1902L19.1933 41.1157ZM19.8519 40.8434L19.4675 39.9203L19.4663 39.9208L19.8519 40.8434ZM19.991 40.7855L20.3754 41.7087L20.3757 41.7086L19.991 40.7855ZM20.2547 40.675L19.8706 39.7517L19.8663 39.7535L20.2547 40.675ZM20.5916 40.5539L20.7089 41.547L20.709 41.547L20.5916 40.5539ZM20.6836 40.5508V41.5508H20.9152L21.1232 41.449L20.6836 40.5508ZM20.8594 40.4647L21.2991 41.363L21.3079 41.3585L20.8594 40.4647ZM22.401 38.9259L23.3289 39.2989L23.3451 39.2585L23.3578 39.2168L22.401 38.9259ZM22.5912 37.1631L23.5911 37.1785L23.5911 37.1784L22.5912 37.1631ZM22.5915 37.1403L23.5914 37.1558L23.5965 36.826L23.4045 36.5579L22.5915 37.1403ZM21.5284 35.3306L22.4297 34.8971L22.4241 34.8859L21.5284 35.3306ZM21.46 35.1928L20.5636 35.6361L20.5644 35.6376L21.46 35.1928ZM20.2246 30.8022L21.2236 30.8453L21.2729 29.7029L20.1341 29.8063L20.2246 30.8022ZM20.1028 30.8133L20.1542 31.812L20.1737 31.811L20.1932 31.8092L20.1028 30.8133ZM18.7317 30.2873L18.0264 30.9961L18.0519 31.0215L18.0792 31.045L18.7317 30.2873ZM17.1829 25.9788L16.1831 25.9985L16.1833 26.007L16.1836 26.0155L17.1829 25.9788ZM17.176 25.527L18.1759 25.5159L18.1758 25.5084L17.176 25.527ZM17.172 25.3118L16.172 25.3093L16.1719 25.3199L16.1721 25.3304L17.172 25.3118ZM17.8538 23.4436L17.1947 22.6916L17.1565 22.7251L17.1219 22.7622L17.8538 23.4436ZM18.2687 23.1661L18.6685 24.0827L19.3244 23.7965L19.2653 23.0834L18.2687 23.1661ZM18.2353 22.6786L19.2336 22.6192L19.2333 22.6148L18.2353 22.6786ZM18.2191 22.4246L17.2209 22.4847L17.2211 22.4884L18.2191 22.4246ZM20.7969 11.1399L20.0239 10.5054L20.0181 10.5127L20.7969 11.1399ZM22.5003 9.45822L23.1259 10.2384L23.1332 10.2324L22.5003 9.45822ZM22.5998 9.37687L21.971 8.59925L21.9668 8.6027L22.5998 9.37687ZM26.1044 7.56959L26.3909 8.52769L26.3962 8.52607L26.1044 7.56959ZM26.2264 7.53238L25.9384 6.57474L25.9346 6.5759L26.2264 7.53238ZM27.5949 7.19919L27.7875 8.18048L27.7884 8.18029L27.5949 7.19919ZM27.7145 7.17561L27.5317 6.19239L27.521 6.19451L27.7145 7.17561ZM32.7955 6.37042L32.6312 6.33347L32.1923 8.28471L32.3565 8.32166L32.7955 6.37042ZM40.1388 11.6307C38.4612 8.85527 35.7446 7.05503 32.8021 6.37194L32.3499 8.32013C34.8105 8.89138 37.0514 10.3892 38.4271 12.6653L40.1388 11.6307ZM40.3658 12.0188C40.2927 11.8922 40.2185 11.7651 40.1431 11.6379L38.4228 12.658C38.4935 12.7773 38.5638 12.8977 38.6341 13.0194L40.3658 12.0188ZM40.4301 12.1295L40.3648 12.0171L38.6351 13.0211L38.7003 13.1335L40.4301 12.1295ZM42.1408 19.8532C42.1451 17.2271 41.8272 14.5682 40.4329 12.1344L38.6975 13.1286C39.838 15.1193 40.1448 17.3672 40.1408 19.85L42.1408 19.8532ZM42.142 20.4002C42.1409 20.2178 42.1405 20.0355 42.1408 19.8531L40.1408 19.8501C40.1405 20.0374 40.1409 20.2247 40.1421 20.4121L42.142 20.4002ZM42.0708 23.2103C42.1376 22.2624 42.1474 21.3225 42.142 20.4003L40.1421 20.412C40.1473 21.3158 40.1372 22.1969 40.0757 23.0696L42.0708 23.2103ZM41.7483 22.3522C41.6516 22.2987 41.5256 22.2346 41.3771 22.1872L40.7694 24.0927C40.7516 24.087 40.7423 24.0826 40.7444 24.0835C40.7455 24.084 40.7489 24.0856 40.7551 24.0888C40.7613 24.092 40.7697 24.0965 40.7809 24.1026L41.7483 22.3522ZM43.1455 24.6374C43.0258 23.7024 42.496 22.9687 41.9176 22.4701L40.6116 23.9848C40.9335 24.2623 41.1219 24.5803 41.1617 24.8914L43.1455 24.6374ZM41.6741 30.5427C42.9191 28.8116 43.2642 26.678 43.152 24.7075L41.1552 24.8213C41.2515 26.5122 40.9398 28.1383 40.0504 29.375L41.6741 30.5427ZM39.6828 31.7491C40.6105 31.6827 41.2829 31.0014 41.6188 30.6128L40.1057 29.3049C39.975 29.4561 39.8464 29.5791 39.7282 29.6616C39.6082 29.7453 39.5474 29.7537 39.5399 29.7542L39.6828 31.7491ZM39.4129 31.7469L39.5858 31.7513L39.6369 29.752L39.464 29.7475L39.4129 31.7469ZM39.2435 31.7436L39.4188 31.747L39.458 29.7474L39.2828 29.744L39.2435 31.7436ZM39.0975 31.7388L39.2297 31.7432L39.2966 29.7443L39.1644 29.7399L39.0975 31.7388ZM40.1193 30.9308L40.1281 30.8153L38.1339 30.6634L38.1251 30.7789L40.1193 30.9308ZM37.5674 37.6834C38.9446 35.7453 39.9109 33.4098 40.1187 30.9386L38.1257 30.771C37.9521 32.8357 37.1379 34.8351 35.9371 36.5249L37.5674 37.6834ZM35.7526 37.1319C35.7703 37.7656 35.7849 38.256 35.923 38.7341L37.8445 38.179C37.7904 37.9919 37.7712 37.7714 37.7519 37.0763L35.7526 37.1319ZM35.923 38.7341C36.0681 39.2364 36.3406 39.6878 36.6956 40.2943L38.4216 39.2839C38.0165 38.5918 37.9043 38.386 37.8445 38.179L35.923 38.7341ZM36.9134 40.5531C37.1567 40.7586 37.5495 41.1001 38.094 41.272L38.6964 39.3649C38.5874 39.3305 38.4796 39.2579 38.2038 39.0251L36.9134 40.5531ZM38.0612 41.261L38.2207 41.3176L38.8887 39.4325L38.7292 39.3759L38.0612 41.261ZM37.606 40.6913C37.6097 40.7023 37.6133 40.7137 37.6168 40.7255L39.5337 40.1549C39.5242 40.123 39.5141 40.0909 39.5034 40.0587L37.606 40.6913ZM38.2699 41.3924C38.5995 41.4981 38.9239 41.6204 39.2536 41.7579L40.0237 39.9122C39.6524 39.7572 39.2742 39.6142 38.8806 39.4879L38.2699 41.3924ZM39.2562 41.759L39.4153 41.8249L40.1803 39.977L40.0211 39.9111L39.2562 41.759ZM39.4151 41.8248C39.5859 41.8956 39.7568 41.9666 39.9284 42.038L40.6966 40.1915C40.5252 40.1201 40.353 40.0485 40.1805 39.9771L39.4151 41.8248ZM39.9295 42.0385L40.2927 42.1891L41.0587 40.3416L40.6955 40.191L39.9295 42.0385ZM40.2927 42.1891C40.5401 42.2917 40.7875 42.3944 41.0349 42.4972L41.8023 40.6502C41.5545 40.5473 41.3066 40.4444 41.0587 40.3416L40.2927 42.1891ZM41.035 42.4972C41.3628 42.6334 41.6907 42.7692 42.0184 42.9047L42.7828 41.0565C42.4556 40.9212 42.1288 40.7859 41.8022 40.6502L41.035 42.4972ZM42.0183 42.9047C43.3968 43.475 44.7738 44.0494 46.1496 44.6272L46.924 42.7833C45.5453 42.2042 44.165 41.6284 42.7829 41.0566L42.0183 42.9047ZM46.1498 44.6273L46.6429 44.8343L47.417 42.9902L46.9238 42.7832L46.1498 44.6273ZM46.6429 44.8343C48.1336 45.4601 49.6183 46.0944 51.0956 46.7442L51.9009 44.9135C50.4108 44.2581 48.9154 43.6192 47.417 42.9902L46.6429 44.8343ZM51.0963 46.7445L51.2171 46.7975L52.0211 44.9662L51.9003 44.9132L51.0963 46.7445ZM51.2178 46.7978L51.4481 46.8988L52.2507 45.0668L52.0203 44.9659L51.2178 46.7978ZM51.5332 46.9315L51.5332 46.9315L52.1657 45.0341L52.1656 45.0341L51.5332 46.9315ZM51.4483 46.8988C53.9592 47.9985 54.5054 48.2449 54.979 48.593L56.1635 46.9815C55.4619 46.4659 54.6388 46.1127 52.2506 45.0668L51.4483 46.8988ZM54.979 48.593C55.1649 48.7297 55.3438 48.8859 55.6482 49.1533L56.9682 47.6507C56.6808 47.3983 56.4332 47.1798 56.1635 46.9815L54.979 48.593ZM55.6553 49.1594L55.6556 49.1597L56.9615 47.6449L56.9611 47.6446L55.6553 49.1594ZM55.6014 49.1094L55.6015 49.1095L57.0157 47.6952L57.0156 47.6952L55.6014 49.1094ZM55.6597 49.1632L55.8043 49.2866L57.1022 47.7649L56.9575 47.6415L55.6597 49.1632ZM55.7961 49.2795C57.1251 50.4383 57.6877 51.9946 58.2172 53.9408L60.1471 53.4158C59.6105 51.4435 58.928 49.3568 57.1104 47.772L55.7961 49.2795ZM58.2179 53.9433C58.2853 54.1887 58.3575 54.435 58.4368 54.6824L60.3413 54.0717C60.2721 53.8558 60.2078 53.6369 60.1464 53.4133L58.2179 53.9433ZM58.4362 54.6803C59.0221 56.521 59.0181 57.9462 59.0043 60.0182L61.0042 60.0315C61.018 57.9689 61.035 56.2509 60.3419 54.0737L58.4362 54.6803ZM59.0043 60.0182C59.0022 60.3304 59 60.6576 59 61H61C61 60.6653 61.0021 60.3446 61.0042 60.0315L59.0043 60.0182ZM60 60H0V62H60V60ZM1 61C1 56.7161 1.00738 55.3948 1.31063 54.1502L-0.632534 53.6767C-1.00738 55.2153 -1 56.8424 -1 61H1ZM1.31063 54.1502C1.47403 53.4795 1.72644 52.822 2.16315 51.6927L0.297786 50.9713C-0.125052 52.0647 -0.431968 52.8535 -0.632533 53.6767L1.31063 54.1502ZM2.16394 51.6907L2.21758 51.5511L0.350644 50.8338L0.297 50.9734L2.16394 51.6907ZM2.21535 51.5568C2.51523 50.7905 2.93053 50.1681 3.5201 49.5777L2.1049 48.1645C1.33112 48.9394 0.75837 49.7918 0.352879 50.828L2.21535 51.5568ZM3.5245 49.5733L3.67167 49.424L2.24767 48.0197L2.1005 48.1689L3.5245 49.5733ZM3.65285 49.4426C4.69003 48.4452 6.09138 47.8289 7.6389 47.1617L6.84708 45.3251C5.36666 45.9634 3.61065 46.7084 2.2665 48.0011L3.65285 49.4426ZM7.69777 47.134L7.69784 47.134L6.78828 45.3528L6.78822 45.3528L7.69777 47.134ZM7.6492 47.1572L7.64935 47.1571L6.83708 45.3295L6.83692 45.3296L7.6492 47.1572ZM7.63127 47.165L7.63162 47.1648L6.85551 45.3215L6.85516 45.3217L7.63127 47.165ZM7.63948 47.1615C7.82364 47.0821 8.00971 47.0018 8.19439 46.9211L7.39283 45.0887C7.21383 45.167 7.03266 45.2451 6.84765 45.3249L7.63948 47.1615ZM8.19529 46.9207C8.74565 46.6793 9.28961 46.4287 9.82488 46.1812L8.98566 44.3658C8.44988 44.6135 7.92219 44.8565 7.39193 45.0891L8.19529 46.9207ZM9.82486 46.1812C10.3412 45.9426 10.8614 45.7124 11.3864 45.4887L10.6024 43.6488C10.0606 43.8796 9.52193 44.1179 8.98568 44.3658L9.82486 46.1812ZM11.3865 45.4887C11.7894 45.317 12.1904 45.143 12.5896 44.9685L11.7886 43.1359C11.3926 43.309 10.9977 43.4803 10.6023 43.6488L11.3865 45.4887ZM12.5893 44.9687C14.2209 44.2562 15.8577 43.5621 17.5041 42.8893L16.7476 41.0379C15.0849 41.7173 13.4334 42.4177 11.7889 43.1358L12.5893 44.9687ZM17.5044 42.8892C17.7647 42.7827 18.0246 42.676 18.2837 42.5695L17.5238 40.7195C17.2644 40.8261 17.0059 40.9323 16.7473 41.038L17.5044 42.8892ZM18.2838 42.5695L18.3059 42.5604L17.5457 40.7105L17.5237 40.7196L18.2838 42.5695ZM18.3057 42.5605C18.5996 42.4398 18.8931 42.3192 19.1867 42.199L18.4284 40.3483C18.134 40.4689 17.8397 40.5898 17.5459 40.7104L18.3057 42.5605ZM19.1867 42.1989L19.3184 42.145L18.56 40.2943L18.4284 40.3483L19.1867 42.1989ZM19.3179 42.1452L19.5721 42.0412L18.8146 40.1902L18.5605 40.2942L19.3179 42.1452ZM19.572 42.0412C19.7939 41.9504 20.0158 41.8588 20.2376 41.7661L19.4663 39.9208C19.2497 40.0113 19.0325 40.101 18.8146 40.1902L19.572 42.0412ZM20.2364 41.7666L20.3754 41.7087L19.6066 39.8624L19.4675 39.9203L20.2364 41.7666ZM20.3757 41.7086C20.4648 41.6714 20.5539 41.6341 20.6431 41.5965L19.8663 39.7535C19.7798 39.79 19.6931 39.8263 19.6063 39.8625L20.3757 41.7086ZM20.6388 41.5983C20.6926 41.5759 20.7324 41.5594 20.7649 41.5461C20.7979 41.5326 20.8149 41.5261 20.8236 41.5229C20.8321 41.5197 20.8217 41.5239 20.8002 41.5297C20.7749 41.5365 20.7435 41.543 20.7089 41.547L20.4743 39.5608C20.2342 39.5892 20.0048 39.6959 19.8706 39.7517L20.6388 41.5983ZM20.709 41.547C20.6827 41.5501 20.664 41.5507 20.6597 41.5508C20.6578 41.5509 20.6582 41.5509 20.6627 41.5508C20.6676 41.5508 20.6733 41.5508 20.6836 41.5508V39.5508C20.6611 39.5508 20.571 39.5494 20.4743 39.5609L20.709 41.547ZM21.1232 41.449L21.299 41.3629L20.4198 39.5666L20.2439 39.6526L21.1232 41.449ZM21.3079 41.3585C22.1597 40.9311 22.8866 40.3992 23.3289 39.2989L21.4731 38.553C21.2804 39.0325 21.022 39.2643 20.4109 39.5709L21.3079 41.3585ZM23.3578 39.2168C23.5775 38.4941 23.5824 37.7425 23.5911 37.1785L21.5913 37.1477C21.5818 37.7653 21.568 38.2281 21.4443 38.635L23.3578 39.2168ZM23.5911 37.1784C23.5912 37.1708 23.5913 37.1633 23.5914 37.1558L21.5917 37.1247C21.5915 37.1325 21.5914 37.1402 21.5913 37.1478L23.5911 37.1784ZM20.6273 35.7642C20.9564 36.4481 21.3361 37.1049 21.7786 37.7226L23.4045 36.5579C23.0374 36.0454 22.715 35.4903 22.4296 34.8971L20.6273 35.7642ZM20.5644 35.6376L20.6328 35.7754L22.4241 34.8859L22.3557 34.748L20.5644 35.6376ZM19.2255 30.7592C19.1515 32.4767 19.94 34.3752 20.5636 35.6361L22.3564 34.7495C21.7423 33.5078 21.1734 32.0112 21.2236 30.8453L19.2255 30.7592ZM20.1932 31.8092L20.315 31.7981L20.1341 29.8063L20.0124 29.8174L20.1932 31.8092ZM18.0792 31.045C18.3395 31.2692 18.6354 31.4827 18.9929 31.6277C19.3621 31.7774 19.7446 31.833 20.1542 31.812L20.0514 29.8146C19.8984 29.8225 19.8118 29.8016 19.7444 29.7742C19.6652 29.7421 19.5569 29.6782 19.3843 29.5296L18.0792 31.045ZM16.1836 26.0155C16.2414 27.5892 16.7166 29.6927 18.0264 30.9961L19.4371 29.5785C18.6572 28.8024 18.2327 27.3167 18.1822 25.9421L16.1836 26.0155ZM16.176 25.5381C16.1777 25.6915 16.1801 25.845 16.1831 25.9985L18.1827 25.9591C18.1798 25.8114 18.1775 25.6637 18.1759 25.5159L16.176 25.5381ZM16.1721 25.3304L16.1761 25.5456L18.1758 25.5084L18.1718 25.2932L16.1721 25.3304ZM17.1219 22.7622C16.4245 23.5113 16.1743 24.3813 16.172 25.3093L18.172 25.3144C18.1733 24.7768 18.302 24.4298 18.5857 24.125L17.1219 22.7622ZM17.8689 22.2495C17.5907 22.3708 17.3747 22.5338 17.1947 22.6916L18.513 24.1957C18.609 24.1115 18.6495 24.0909 18.6685 24.0827L17.8689 22.2495ZM17.2371 22.738C17.2469 22.9023 17.2577 23.0742 17.2721 23.2487L19.2653 23.0834C19.2528 22.9333 19.2431 22.7805 19.2336 22.6192L17.2371 22.738ZM17.2211 22.4884L17.2374 22.7424L19.2333 22.6148L19.217 22.3608L17.2211 22.4884ZM20.0181 10.5127C17.1767 14.0412 16.9716 18.3399 17.2209 22.4847L19.2173 22.3646C18.9727 18.2974 19.2358 14.6729 21.5758 11.7671L20.0181 10.5127ZM21.8746 8.6781C21.1941 9.22384 20.5896 9.81627 20.024 10.5055L21.5699 11.7743C22.045 11.1955 22.5501 10.7001 23.1259 10.2383L21.8746 8.6781ZM21.9668 8.6027L21.8673 8.68404L23.1332 10.2324L23.2327 10.1511L21.9668 8.6027ZM25.8179 6.61151C24.4787 7.01197 23.1162 7.67334 21.971 8.59926L23.2285 10.1545C24.1411 9.41663 25.2612 8.86549 26.3909 8.52767L25.8179 6.61151ZM25.9346 6.5759L25.8126 6.61311L26.3962 8.52607L26.5182 8.48887L25.9346 6.5759ZM27.4024 6.2179C26.9177 6.31301 26.429 6.42723 25.9384 6.57475L26.5144 8.49002C26.9272 8.36587 27.3498 8.26636 27.7875 8.18048L27.4024 6.2179ZM27.521 6.19451L27.4014 6.21808L27.7884 8.18029L27.908 8.15671L27.521 6.19451ZM32.6337 6.33402C31.0035 5.963 29.2137 5.87981 27.5317 6.19245L27.8972 8.15877C29.2785 7.90203 30.7911 7.9658 32.1898 8.28415L32.6337 6.33402Z" fill="#542866"/>
</g>
<defs>
<clipPath id="clip0_1004_653">
<rect width="60" height="60" rx="15" fill="white"/>
</clipPath>
</defs>
</svg>
