<svg width="45" height="30" viewBox="0 0 45 30" fill="none" xmlns="http://www.w3.org/2000/svg">
<rect x="21.6758" y="1" width="22.3243" height="28" rx="7" stroke="#8E50D2" stroke-width="2"/>
<path d="M25.6758 9H40.0001" stroke="#8E50D2" stroke-width="2" stroke-linecap="round"/>
<path d="M25.6758 15H40.0001" stroke="#8E50D2" stroke-width="2" stroke-linecap="round"/>
<path d="M25.6758 21H30.6758" stroke="#8E50D2" stroke-width="2" stroke-linecap="round"/>
<path d="M14.3937 9.99723C13.9444 9.50462 13.1754 9.46468 12.6761 9.90803C12.1768 10.3514 12.1364 11.1101 12.5857 11.6027L14.85 14.0851H1.21622C0.544519 14.0851 0 14.6223 0 15.2851C0 15.9478 0.544519 16.4851 1.21622 16.4851H14.8497L12.5857 18.9671C12.1364 19.4597 12.1768 20.2185 12.6761 20.6618C13.1754 21.1052 13.9444 21.0652 14.3937 20.5726L18.4847 16.0877C18.901 15.6313 18.901 14.9385 18.4847 14.4822L14.3937 9.99723Z" fill="#8E50D2"/>
</svg>
